<svg width="155" height="33" viewBox="0 0 155 33" fill="none" xmlns="http://www.w3.org/2000/svg">
<g clip-path="url(#clip0)">
<path d="M100.036 6.83112C93.2565 6.83112 91.2382 11.23 91.2382 15.9394C91.2382 22.4601 94.6538 25.5135 101.071 25.5135C103.245 25.5135 105.47 25.2547 107.436 24.6854V23.5469C105.573 24.1162 103.607 24.4784 101.744 24.4784C96.9826 24.4784 95.9993 20.4936 95.9993 16.5087H109.041C109.041 9.00469 106.143 6.83112 100.036 6.83112ZM95.9476 15.3184C95.9476 10.7642 96.6203 7.86615 100.036 7.86615C103.452 7.86615 104.124 10.7642 104.124 15.3184H95.9476Z" fill="white"/>
<path d="M146.405 14.5939H142.162V7.29688H134.554V8.07315L137.608 8.33191V23.9609L134.554 24.2197V24.9959H138.28C141.334 24.9959 142.886 25.3582 145.733 25.3582C150.494 25.3582 154.22 24.6337 154.22 19.9243C154.22 15.3184 150.546 14.5939 146.405 14.5939ZM145.215 24.2714C144.18 24.2714 143.3 24.2714 142.162 24.1162V15.6289H146.043C148.631 15.6289 149.614 17.2332 149.614 19.8725C149.614 22.8741 148.579 24.2714 145.215 24.2714Z" fill="white"/>
<path d="M122.393 8.1249L125.446 8.33191V14.9561H117.632V7.29688H109.972V8.1249L113.026 8.33191V23.9609L109.972 24.1679V24.9442H120.685V24.1679L117.632 23.9609V16.1464H125.446V24.9442H133.054V24.1679L130 23.9609V8.33191L133.054 8.1249V7.29688H122.393V8.1249Z" fill="white"/>
<path d="M86.891 7.29688H73.125V8.07316L76.1784 8.33192C75.8161 13.9211 73.6426 20.1831 71.7795 23.9609L70.641 24.0644L70.0199 23.9609C70.0199 23.9609 66.0868 16.7674 62.6712 13.5588C63.344 12.6791 64.586 10.2467 65.3105 9.00469C65.7245 9.36695 66.4491 9.67746 67.4324 9.67746C68.4674 9.67746 69.1402 9.15994 69.1402 8.33192C69.1402 7.29688 68.1051 6.77937 66.7596 6.77937C66.0868 6.77937 65.0518 7.03813 64.4308 7.96966C62.8265 10.4537 61.3257 14.7491 58.9451 14.7491H58.4276V7.29688H51.4928V8.07316L54.1839 8.33192V14.8009H53.6664C51.2341 14.8009 49.785 10.5055 48.1807 8.02141C47.6115 7.08988 46.5764 6.83112 45.8519 6.83112C44.5064 6.83112 43.4713 7.34864 43.4713 8.38367C43.4713 9.2117 44.1441 9.72921 45.1791 9.72921C46.2142 9.72921 46.8869 9.36695 47.301 9.05644C48.0255 10.2985 49.2675 12.7308 49.9403 13.6106C46.5247 16.8192 42.5916 24.0127 42.5916 24.0127L41.0908 24.2197L38.3997 24.0127V8.33192L41.453 8.07316V7.29688H30.8957V8.07316L33.949 8.33192L26.1345 21.6839V7.29688H20.4418V1.19019H0.41394V7.45214H2.277L3.31204 2.22522H8.07319V23.9609L5.01984 24.2197V24.996H15.8877V24.2197L12.8343 23.9609V2.22522H17.5955L18.5788 7.29688H18.527V8.07316L21.5804 8.33192V23.9609L18.527 24.2197V24.996H29.2396V24.2197L26.1863 23.9609L34.0008 10.609V24.9442H47.6115C49.4745 21.2181 51.3376 18.0612 53.3559 15.7842H54.1839V23.9092L51.1306 24.1679V24.9442H61.4809V24.1679L58.4276 23.9092V15.7842H59.2556C61.2739 18.0612 63.137 21.2181 65 24.9442H68.6744V31.6719H70.2787L71.2102 24.9442H87.512L88.4953 31.6719H90.5654V23.9092H86.8392V7.29688H86.891ZM82.3368 23.9609H73.332C74.9363 20.4418 76.9547 14.4904 77.4722 8.53892V8.48717H82.3368V23.9609Z" fill="white"/>
<path d="M24.4785 1.19031L25.0478 2.43235C25.1513 2.69111 25.2548 2.89811 25.3066 3.10512C25.3583 2.94986 25.4101 2.74286 25.5136 2.43235L25.9276 1.19031H26.9109L26.1863 2.89811C25.9276 3.41563 25.7206 3.9849 25.4101 4.29541C25.1513 4.55417 24.8408 4.76117 24.375 4.76117C24.168 4.76117 24.0645 4.76117 23.961 4.70942L24.0128 4.0884C24.0645 4.0884 24.168 4.0884 24.3233 4.0884C24.582 4.0884 24.789 3.93315 24.8408 3.77789C24.8925 3.72614 24.8408 3.67439 24.8408 3.62264L23.547 1.19031H24.4785Z" fill="white"/>
<path d="M36.2779 1.19031V2.63935H36.3814L37.4682 1.19031H38.5549L37.2094 2.74286C37.7269 2.84636 37.9339 3.15687 38.0892 3.57088C38.2444 3.93315 38.3479 4.29541 38.5549 4.65767H37.6234C37.4681 4.39891 37.4164 4.14015 37.3129 3.88139C37.1576 3.46738 37.0024 3.20862 36.5366 3.20862H36.3814V4.65767H35.5016V1.19031H36.2779Z" fill="white"/>
<path d="M47.0422 1.24206C47.301 1.19031 47.715 1.19031 48.2325 1.19031C48.75 1.19031 49.1641 1.29381 49.4228 1.44907C49.6816 1.60432 49.8368 1.91483 49.8368 2.27709C49.8368 2.63935 49.7333 2.89811 49.4746 3.10512C49.164 3.36388 48.75 3.46738 48.2325 3.46738C48.129 3.46738 48.0255 3.46738 47.922 3.46738V4.70942H47.0422V1.24206ZM47.922 2.84636C47.9738 2.84636 48.0773 2.84636 48.2325 2.84636C48.6983 2.84636 49.0088 2.63935 49.0088 2.27709C49.0088 1.96658 48.75 1.75958 48.336 1.75958C48.1808 1.75958 48.0255 1.75958 47.9738 1.75958V2.84636H47.922Z" fill="white"/>
<path d="M59.1522 3.82968L58.8934 4.70946H57.9619L59.1522 1.2421H60.2907L61.481 4.70946H60.5495L60.239 3.82968H59.1522ZM60.1355 3.20866L59.8767 2.48414C59.825 2.27713 59.7215 2.01837 59.6697 1.81136C59.618 2.01837 59.5662 2.27713 59.5145 2.48414L59.3075 3.20866H60.1355Z" fill="white"/>
<path d="M69.606 0.672809C69.606 0.465802 69.7612 0.310547 70.02 0.310547C70.227 0.310547 70.3822 0.465802 70.3822 0.672809C70.3822 0.879815 70.227 1.03507 70.02 1.03507C69.813 1.03507 69.606 0.828064 69.606 0.672809ZM71.055 1.19033V4.65769H70.1752V1.19033H71.055ZM70.7962 0.672809C70.7962 0.465802 70.9515 0.310547 71.2103 0.310547C71.4173 0.310547 71.5725 0.465802 71.5725 0.672809C71.5725 0.879815 71.4173 1.03507 71.1585 1.03507C71.0033 1.03507 70.7962 0.828064 70.7962 0.672809Z" fill="white"/>
<path d="M80.8361 1.19031V2.53585H82.2851V1.19031H83.1649V4.65767H82.2851V3.20862H80.8361V4.65767H79.9563V1.19031H80.8361Z" fill="white"/>
<path d="M94.9644 4.60594C94.8091 4.65769 94.4469 4.7612 93.9811 4.7612C92.6355 4.7612 91.9628 3.98492 91.9628 3.00164C91.9628 1.81135 92.8943 1.13858 94.0846 1.13858C94.5504 1.13858 94.8609 1.24208 95.0161 1.29384L94.8091 1.91486C94.6539 1.8631 94.3951 1.81135 94.0846 1.81135C93.4118 1.81135 92.8425 2.17361 92.8425 2.94989C92.8425 3.62266 93.3083 4.08843 94.0846 4.08843C94.3434 4.08843 94.6539 4.03667 94.8091 3.98492L94.9644 4.60594Z" fill="white"/>
<path d="M104.59 1.19031V2.3806C104.694 2.3806 104.901 2.32884 105.056 2.32884C105.884 2.32884 106.608 2.69111 106.608 3.46738C106.608 3.82964 106.505 4.03665 106.298 4.24366C105.936 4.60592 105.263 4.70942 104.694 4.70942C104.28 4.70942 103.917 4.70942 103.762 4.65767V1.19031H104.59ZM104.59 4.14015C104.694 4.14015 104.797 4.14015 104.901 4.14015C105.315 4.14015 105.677 3.93315 105.677 3.57088C105.677 3.15687 105.315 3.00162 104.901 3.00162C104.797 3.00162 104.694 3.00162 104.59 3.00162V4.14015Z" fill="white"/>
<path d="M116.234 1.19031V2.63935H116.338L117.425 1.19031H118.511L117.166 2.74286C117.683 2.84636 117.89 3.15687 118.046 3.57088C118.201 3.93315 118.304 4.29541 118.511 4.65767H117.476C117.321 4.39891 117.269 4.14015 117.166 3.88139C117.011 3.46738 116.855 3.20862 116.39 3.20862H116.234V4.65767H115.354V1.19031H116.234Z" fill="white"/>
<path d="M127.775 1.19031V2.22534C127.775 2.79461 127.775 3.31213 127.723 3.77789C127.93 3.36388 128.189 2.89811 128.396 2.53585L129.224 1.19031H130.104V4.65767H129.379V3.62264C129.379 3.10512 129.379 2.5876 129.431 2.17359C129.276 2.5876 129.017 3.05337 128.758 3.41563L127.982 4.65767H126.999V1.19031H127.775Z" fill="white"/>
<path d="M139.937 1.19031V2.22534C139.937 2.79461 139.937 3.31213 139.885 3.77789C140.092 3.36388 140.351 2.89811 140.558 2.53585L141.386 1.19031H142.265V4.65767H141.437V3.62264C141.437 3.10512 141.437 2.5876 141.489 2.17359C141.334 2.5876 141.075 3.05337 140.816 3.41563L140.04 4.65767H139.057V1.19031H139.937ZM140.454 0.414032C140.454 0.621039 140.506 0.724542 140.713 0.724542C140.868 0.724542 140.972 0.621039 140.972 0.414032H141.541C141.489 0.828045 141.179 1.03505 140.661 1.03505C140.144 1.03505 139.885 0.828045 139.833 0.414032H140.454Z" fill="white"/>
</g>
<defs>
<clipPath id="clip0">
<path d="M0 0H154.22V32.086H0V0Z" fill="white"/>
</clipPath>
</defs>
</svg>
