<svg width="185" height="42" viewBox="0 0 185 42" fill="none" xmlns="http://www.w3.org/2000/svg">
<path d="M184.99 0H0V41.43H184.99V0Z" fill="#ED1B2F"/>
<path d="M115.353 13.0504C108.555 13.0504 106.531 17.4524 106.531 22.165C106.531 28.6902 109.956 31.7457 116.39 31.7457C118.57 31.7457 120.801 31.4868 122.773 30.9171V29.7778C120.905 30.3474 118.933 30.7099 117.065 30.7099C112.291 30.7099 111.305 26.7223 111.305 22.7347H124.382C124.382 15.2255 121.476 13.0504 115.353 13.0504ZM111.253 21.5436C111.253 16.9863 111.928 14.0862 115.353 14.0862C118.777 14.0862 119.452 16.9863 119.452 21.5436H111.253Z" fill="white"/>
<path d="M161.847 20.8186H157.592V13.5166H149.964V14.2934L153.025 14.5524V30.1922L149.964 30.4511V31.2279H153.7C156.762 31.2279 158.318 31.5904 161.172 31.5904C165.946 31.5904 169.682 30.8654 169.682 26.1527C169.682 21.5437 165.998 20.8186 161.847 20.8186ZM160.653 30.5029C159.616 30.5029 158.733 30.5029 157.592 30.3475V21.8544H161.484C164.078 21.8544 165.064 23.4598 165.064 26.101C165.064 29.1046 164.026 30.5029 160.653 30.5029Z" fill="white"/>
<path d="M137.77 14.3452L140.831 14.5524V21.1812H132.996V13.5166H125.316V14.3452L128.377 14.5524V30.1922L125.316 30.3993V31.1761H136.057V30.3993L132.996 30.1922V22.3723H140.831V31.1761H148.459V30.3993L145.397 30.1922V14.5524L148.459 14.3452V13.5166H137.77V14.3452Z" fill="white"/>
<path d="M102.172 13.5165H88.3695V14.2933L91.4311 14.5523C91.0678 20.1453 88.8885 26.4116 87.0204 30.1921L85.8788 30.2956L85.2561 30.1921C85.2561 30.1921 81.3124 22.9936 77.8877 19.7828C78.5622 18.9024 79.8076 16.4684 80.5341 15.2255C80.9492 15.588 81.6757 15.8987 82.6616 15.8987C83.6994 15.8987 84.374 15.3809 84.374 14.5523C84.374 13.5165 83.3362 12.9986 81.987 12.9986C81.3124 12.9986 80.2746 13.2576 79.6519 14.1897C78.0433 16.6755 76.5385 20.9739 74.1515 20.9739H73.6326V13.5165H66.6793V14.2933L69.3776 14.5523V21.0257H68.8587C66.4199 21.0257 64.9669 16.7273 63.3583 14.2415C62.7875 13.3094 61.7497 13.0504 61.0232 13.0504C59.6741 13.0504 58.6363 13.5683 58.6363 14.604C58.6363 15.4326 59.3109 15.9505 60.3487 15.9505C61.3865 15.9505 62.0611 15.588 62.4762 15.2773C63.2027 16.5202 64.448 18.9542 65.1226 19.8346C61.6978 23.0454 57.7541 30.2439 57.7541 30.2439L56.2493 30.451L53.551 30.2439V14.5523L56.6126 14.2933V13.5165H46.0269V14.2933L49.0884 14.5523L41.253 27.9134V13.5165H35.545V7.40558H15.4634V13.6719H17.3314L18.3692 8.44133H23.1432V30.1921L20.0816 30.451V31.2278H30.9786V30.451L27.9171 30.1921V8.44133H32.691L33.6769 13.5165H33.6251V14.2933L36.6866 14.5523V30.1921L33.6251 30.451V31.2278H44.3664V30.451L41.3049 30.1921L49.1403 16.8309V31.176H62.7875C64.6556 27.4473 66.5236 24.2883 68.5474 22.0096H69.3776V30.1403L66.3161 30.3992V31.176H76.6942V30.3992L73.6326 30.1403V22.0096H74.4629C76.4866 24.2883 78.3547 27.4473 80.2227 31.176H83.907V37.9084H85.5156L86.4496 31.176H102.795L103.781 37.9084H105.857V30.1403H102.121V13.5165H102.172ZM97.6061 30.1921H88.5771C90.1857 26.6705 92.2094 20.715 92.7283 14.7594V14.7076H97.6061V30.1921Z" fill="white"/>
<path d="M39.5922 7.40555L40.163 8.64845C40.2668 8.90739 40.3706 9.11454 40.4225 9.32169C40.4744 9.16632 40.5263 8.95917 40.63 8.64845L41.0452 7.40555H42.0311L41.3046 9.11454C41.0452 9.63241 40.8376 10.2021 40.5263 10.5128C40.2668 10.7717 39.9555 10.9789 39.4884 10.9789C39.2809 10.9789 39.1771 10.9789 39.0733 10.9271L39.1252 10.3056C39.1771 10.3056 39.2809 10.3056 39.4366 10.3056C39.696 10.3056 39.9036 10.1503 39.9555 9.99492C40.0074 9.94313 39.9555 9.89135 39.9555 9.83956L38.6582 7.40555H39.5922Z" fill="white"/>
<path d="M51.4234 7.40555V8.8556H51.5272L52.6169 7.40555H53.7066L52.3574 8.95917C52.8763 9.06275 53.0839 9.37347 53.2395 9.78777C53.3952 10.1503 53.499 10.5128 53.7066 10.8753H52.7725C52.6169 10.6164 52.565 10.3574 52.4612 10.0985C52.3055 9.6842 52.1498 9.42526 51.6828 9.42526H51.5272V10.8753H50.645V7.40555H51.4234Z" fill="white"/>
<path d="M62.2166 7.45734C62.476 7.40555 62.8911 7.40555 63.41 7.40555C63.9289 7.40555 64.3441 7.50912 64.6035 7.66449C64.863 7.81985 65.0186 8.13057 65.0186 8.49309C65.0186 8.8556 64.9149 9.11454 64.6554 9.32169C64.3441 9.58062 63.9289 9.6842 63.41 9.6842C63.3062 9.6842 63.2025 9.6842 63.0987 9.6842V10.9271H62.2166V7.45734ZM63.0987 9.06275C63.1506 9.06275 63.2544 9.06275 63.41 9.06275C63.877 9.06275 64.1884 8.8556 64.1884 8.49309C64.1884 8.18236 63.9289 7.97521 63.5138 7.97521C63.3581 7.97521 63.2025 7.97521 63.1506 7.97521V9.06275H63.0987Z" fill="white"/>
<path d="M74.359 10.0467L74.0996 10.9271H73.1655L74.359 7.45731H75.5006L76.6941 10.9271H75.76L75.4487 10.0467H74.359ZM75.3449 9.42523L75.0855 8.70021C75.0336 8.49306 74.9298 8.23412 74.8779 8.02697C74.826 8.23412 74.7741 8.49306 74.7222 8.70021L74.5147 9.42523H75.3449Z" fill="white"/>
<path d="M84.8411 6.88778C84.8411 6.68063 84.9967 6.52527 85.2562 6.52527C85.4638 6.52527 85.6194 6.68063 85.6194 6.88778C85.6194 7.09493 85.4638 7.25029 85.2562 7.25029C85.0486 7.25029 84.8411 7.04314 84.8411 6.88778ZM86.294 7.40566V10.8754H85.4119V7.40566H86.294ZM86.0345 6.88778C86.0345 6.68063 86.1902 6.52527 86.4497 6.52527C86.6572 6.52527 86.8129 6.68063 86.8129 6.88778C86.8129 7.09493 86.6572 7.25029 86.3978 7.25029C86.2421 7.25029 86.0345 7.04314 86.0345 6.88778Z" fill="white"/>
<path d="M96.1011 7.40555V8.75202H97.5541V7.40555H98.4362V10.8753H97.5541V9.42526H96.1011V10.8753H95.219V7.40555H96.1011Z" fill="white"/>
<path d="M110.267 10.8236C110.111 10.8753 109.748 10.9789 109.281 10.9789C107.932 10.9789 107.257 10.2021 107.257 9.21814C107.257 8.02703 108.191 7.35379 109.385 7.35379C109.852 7.35379 110.163 7.45737 110.319 7.50915L110.111 8.1306C109.956 8.07882 109.696 8.02703 109.385 8.02703C108.71 8.02703 108.14 8.38954 108.14 9.16635C108.14 9.83959 108.607 10.3057 109.385 10.3057C109.644 10.3057 109.956 10.2539 110.111 10.2021L110.267 10.8236Z" fill="white"/>
<path d="M119.919 7.40555V8.59666C120.023 8.59666 120.23 8.54487 120.386 8.54487C121.216 8.54487 121.943 8.90739 121.943 9.6842C121.943 10.0467 121.839 10.2539 121.631 10.461C121.268 10.8235 120.594 10.9271 120.023 10.9271C119.608 10.9271 119.244 10.9271 119.089 10.8753V7.40555H119.919ZM119.919 10.3574C120.023 10.3574 120.127 10.3574 120.23 10.3574C120.645 10.3574 121.009 10.1503 121.009 9.78777C121.009 9.37347 120.645 9.21811 120.23 9.21811C120.127 9.21811 120.023 9.21811 119.919 9.21811V10.3574Z" fill="white"/>
<path d="M131.594 7.40555V8.8556H131.698L132.788 7.40555H133.877L132.528 8.95917C133.047 9.06275 133.255 9.37347 133.41 9.78777C133.566 10.1503 133.67 10.5128 133.877 10.8753H132.84C132.684 10.6164 132.632 10.3574 132.528 10.0985C132.373 9.6842 132.217 9.42526 131.75 9.42526H131.594V10.8753H130.712V7.40555H131.594Z" fill="white"/>
<path d="M143.166 7.40555V8.4413C143.166 9.01096 143.166 9.52883 143.114 9.99492C143.321 9.58062 143.581 9.11453 143.789 8.75202L144.619 7.40555H145.501V10.8753H144.774V9.83956C144.774 9.32168 144.774 8.80381 144.826 8.38951C144.671 8.80381 144.411 9.2699 144.152 9.63241L143.373 10.8753H142.387V7.40555H143.166Z" fill="white"/>
<path d="M155.36 7.4056V8.44135C155.36 9.01101 155.36 9.52888 155.308 9.99497C155.516 9.58067 155.775 9.11458 155.983 8.75207L156.813 7.4056H157.695V10.8754H156.865V9.83961C156.865 9.32173 156.865 8.80386 156.917 8.38956C156.761 8.80386 156.502 9.26995 156.242 9.63246L155.464 10.8754H154.478V7.4056H155.36ZM155.879 6.62878C155.879 6.83593 155.931 6.93951 156.139 6.93951C156.294 6.93951 156.398 6.83593 156.398 6.62878H156.969C156.917 7.04308 156.606 7.25023 156.087 7.25023C155.568 7.25023 155.308 7.04308 155.256 6.62878H155.879Z" fill="white"/>
</svg>
