<svg width="528" height="281" viewBox="0 0 528 281" fill="none" xmlns="http://www.w3.org/2000/svg">
<path fill-rule="evenodd" clip-rule="evenodd" d="M512.602 240.475H461.563C458.16 240.467 454.898 239.108 452.49 236.696C450.082 234.283 448.725 231.013 448.713 227.6V227.419C448.725 224.051 450.048 220.821 452.4 218.417C454.753 216.013 457.948 214.625 461.305 214.55H481.301C485.33 214.55 489.193 212.945 492.042 210.088C494.89 207.232 496.491 203.357 496.491 199.317C496.491 195.277 494.89 191.403 492.042 188.546C489.193 185.69 485.33 184.085 481.301 184.085L417.598 184.078C414.24 184.003 411.045 182.615 408.693 180.211C406.34 177.807 405.018 174.577 405.006 171.209V171.028C405.017 167.615 406.375 164.345 408.783 161.933C411.19 159.52 414.452 158.162 417.856 158.153H445.715C449.742 158.143 453.601 156.535 456.449 153.681C459.298 150.827 460.904 146.958 460.918 142.92C460.905 138.882 459.298 135.014 456.45 132.159C453.601 129.305 449.742 127.698 445.715 127.688H410.095C403.367 127.287 397.694 121.665 397.694 114.842V114.661C397.705 111.247 399.063 107.978 401.471 105.565C403.878 103.153 407.14 101.794 410.544 101.785H430.635C432.633 101.79 434.612 101.399 436.459 100.636C438.306 99.8722 439.984 98.7509 441.399 97.336C442.813 95.921 443.935 94.2403 444.7 92.3899C445.466 90.5395 445.86 88.5558 445.86 86.5525C445.86 84.5492 445.466 82.5656 444.7 80.7152C443.935 78.8648 442.813 77.184 441.399 75.7691C439.984 74.3541 438.306 73.2328 436.459 72.4694C434.612 71.7059 432.633 71.3153 430.635 71.3199H155.419C153.421 71.3153 151.442 71.7059 149.596 72.4694C147.749 73.2328 146.07 74.3541 144.656 75.7691C143.242 77.184 142.12 78.8648 141.354 80.7152C140.589 82.5656 140.195 84.5492 140.195 86.5525C140.195 88.5558 140.589 90.5395 141.354 92.3899C142.12 94.2403 143.242 95.921 144.656 97.336C146.07 98.7509 147.749 99.8722 149.596 100.636C151.442 101.399 153.421 101.79 155.419 101.785H170.943C174.347 101.794 177.609 103.153 180.017 105.565C182.424 107.978 183.782 111.247 183.794 114.661V114.842C183.782 118.121 182.527 121.273 180.283 123.659C178.038 126.045 174.974 127.485 171.71 127.688H145.781C141.754 127.698 137.895 129.305 135.047 132.159C132.198 135.014 130.592 138.882 130.578 142.92C130.592 146.958 132.198 150.827 135.047 153.681C137.895 156.535 141.755 158.143 145.781 158.153H152.853C156.257 158.162 159.519 159.52 161.926 161.933C164.334 164.345 165.692 167.615 165.703 171.028V171.209C165.691 174.577 164.368 177.807 162.016 180.211C159.664 182.615 156.468 184.003 153.111 184.078H56.4258C54.4281 184.074 52.4491 184.464 50.6022 185.228C48.7553 185.991 47.0767 187.113 45.6625 188.527C44.2483 189.942 43.1263 191.623 42.3608 193.474C41.5952 195.324 41.2012 197.308 41.2012 199.311C41.2012 201.314 41.5952 203.298 42.3608 205.148C43.1263 206.999 44.2483 208.68 45.6625 210.094C47.0767 211.509 48.7553 212.631 50.6022 213.394C52.4491 214.158 54.4281 214.548 56.4258 214.544L102.038 214.55C105.395 214.625 108.591 216.013 110.943 218.417C113.295 220.821 114.618 224.051 114.63 227.419V227.6C114.63 234.682 110.313 240.475 103.245 240.475H87.3483C83.3198 240.475 79.4562 242.08 76.6076 244.937C73.7589 247.794 72.1586 251.668 72.1586 255.708C72.1586 259.748 73.7589 263.622 76.6076 266.479C79.4562 269.336 83.3198 270.941 87.3483 270.941H512.602C516.631 270.941 520.495 269.336 523.343 266.479C526.192 263.622 527.792 259.748 527.792 255.708C527.792 251.668 526.192 247.794 523.343 244.937C520.495 242.08 516.631 240.475 512.602 240.475ZM505.122 127.792H495.605C491.608 127.792 487.775 129.384 484.949 132.218C482.124 135.052 480.536 138.896 480.536 142.903C480.536 146.911 482.124 150.755 484.949 153.589C487.775 156.422 491.608 158.014 495.605 158.014H505.122C509.118 158.014 512.951 156.422 515.777 153.589C518.603 150.755 520.19 146.911 520.19 142.903C520.19 138.896 518.603 135.052 515.777 132.218C512.951 129.384 509.118 127.792 505.122 127.792Z" fill="#F2F3F5"/>
<path d="M489.907 270.868H449.62C449.044 270.868 448.492 270.64 448.085 270.233C447.678 269.826 447.449 269.274 447.449 268.699V194.047C447.449 193.472 447.678 192.92 448.085 192.513C448.492 192.107 449.044 191.878 449.62 191.878H489.907C490.483 191.878 491.035 192.107 491.442 192.513C491.849 192.92 492.078 193.472 492.078 194.047V268.699C492.078 269.274 491.849 269.826 491.442 270.233C491.035 270.64 490.483 270.868 489.907 270.868Z" fill="#E1E2E6" stroke="#D2D4D9" stroke-width="2" stroke-miterlimit="10"/>
<path d="M492.078 203.605H447.449V258.591H492.078V203.605Z" fill="white"/>
<path d="M489.907 270.868H449.62C449.044 270.868 448.492 270.64 448.085 270.233C447.678 269.826 447.449 269.274 447.449 268.699V194.047C447.449 193.472 447.678 192.92 448.085 192.513C448.492 192.107 449.044 191.878 449.62 191.878H489.907C490.483 191.878 491.035 192.107 491.442 192.513C491.849 192.92 492.078 193.472 492.078 194.047V268.699C492.078 269.274 491.849 269.826 491.442 270.233C491.035 270.64 490.483 270.868 489.907 270.868Z" stroke="#3C3C3C" stroke-width="1.8" stroke-miterlimit="10"/>
<path d="M492.078 203.605H447.449" stroke="#3C3C3C" stroke-width="1.8" stroke-miterlimit="10"/>
<path d="M447.449 258.591H492.078" stroke="#3C3C3C" stroke-width="1.8" stroke-miterlimit="10"/>
<path d="M465.828 197.959H473.998" stroke="#3C3C3C" stroke-width="2" stroke-miterlimit="10"/>
<path d="M455.241 242.279L456.141 242.288L456.141 242.275L456.141 242.261L455.241 242.279ZM456.364 237.891L455.506 237.62L455.506 237.62L456.364 237.891ZM453.465 231.098L452.982 230.338L451.786 231.098L452.982 231.858L453.465 231.098ZM456.364 224.306L455.506 224.576H455.506L456.364 224.306ZM455.241 219.917L456.141 219.935L456.141 219.921L456.141 219.908L455.241 219.917ZM485.516 242.279L484.616 242.262L484.616 242.275L484.616 242.288L485.516 242.279ZM484.393 237.891L483.535 238.161L483.535 238.161L484.393 237.891ZM487.292 231.098L487.775 231.858L488.971 231.098L487.775 230.338L487.292 231.098ZM484.393 224.306L483.535 224.035L483.535 224.035L484.393 224.306ZM485.516 219.917L484.616 219.908L484.616 219.922L484.616 219.935L485.516 219.917ZM459.011 245.504C458.218 245.421 457.484 245.046 456.953 244.451L455.61 245.649C456.44 246.579 457.586 247.165 458.825 247.294L459.011 245.504ZM456.953 244.451C456.423 243.856 456.133 243.085 456.141 242.288L454.341 242.27C454.329 243.515 454.781 244.72 455.61 245.649L456.953 244.451ZM456.141 242.261C456.129 241.644 456.265 241.015 456.48 240.327C456.587 239.984 456.71 239.639 456.84 239.276C456.967 238.919 457.102 238.542 457.223 238.161L455.506 237.62C455.398 237.963 455.275 238.306 455.145 238.67C455.017 239.029 454.882 239.407 454.762 239.79C454.522 240.556 454.324 241.398 454.342 242.297L456.141 242.261ZM457.223 238.161C458.336 234.628 456.394 231.892 453.947 230.338L452.982 231.858C455.032 233.159 456.284 235.151 455.506 237.62L457.223 238.161ZM453.947 231.858C456.394 230.304 458.336 227.569 457.223 224.035L455.506 224.576C456.284 227.046 455.032 229.037 452.982 230.338L453.947 231.858ZM457.223 224.035C457.102 223.654 456.967 223.278 456.84 222.92C456.71 222.557 456.587 222.212 456.48 221.869C456.265 221.182 456.129 220.553 456.141 219.935L454.342 219.9C454.324 220.798 454.522 221.64 454.762 222.407C454.882 222.79 455.017 223.168 455.145 223.526C455.275 223.89 455.398 224.234 455.506 224.576L457.223 224.035ZM456.141 219.908C456.133 219.111 456.423 218.34 456.953 217.745L455.61 216.547C454.781 217.476 454.329 218.681 454.341 219.927L456.141 219.908ZM456.953 217.745C457.484 217.151 458.218 216.775 459.011 216.693L458.825 214.902C457.586 215.031 456.44 215.618 455.61 216.547L456.953 217.745ZM481.933 247.294C483.171 247.165 484.318 246.579 485.147 245.649L483.804 244.451C483.273 245.046 482.539 245.421 481.746 245.504L481.933 247.294ZM485.147 245.649C485.976 244.72 486.428 243.515 486.416 242.27L484.616 242.288C484.624 243.085 484.334 243.856 483.804 244.451L485.147 245.649ZM486.416 242.297C486.433 241.398 486.235 240.556 485.995 239.79C485.875 239.407 485.74 239.029 485.612 238.67C485.482 238.306 485.359 237.963 485.251 237.62L483.535 238.161C483.655 238.542 483.79 238.919 483.917 239.276C484.047 239.64 484.17 239.984 484.277 240.327C484.493 241.015 484.628 241.644 484.616 242.262L486.416 242.297ZM485.251 237.62C484.473 235.151 485.725 233.159 487.775 231.858L486.81 230.338C484.363 231.892 482.421 234.628 483.535 238.161L485.251 237.62ZM487.775 230.338C485.725 229.037 484.473 227.046 485.251 224.576L483.535 224.035C482.421 227.569 484.363 230.304 486.81 231.858L487.775 230.338ZM485.251 224.576C485.359 224.234 485.482 223.89 485.612 223.526C485.74 223.168 485.875 222.79 485.995 222.407C486.235 221.641 486.433 220.799 486.416 219.9L484.616 219.935C484.628 220.553 484.493 221.182 484.277 221.869C484.17 222.213 484.047 222.557 483.917 222.92C483.79 223.278 483.655 223.655 483.535 224.035L485.251 224.576ZM486.416 219.927C486.428 218.681 485.976 217.476 485.147 216.547L483.804 217.746C484.334 218.34 484.624 219.111 484.616 219.908L486.416 219.927ZM485.147 216.547C484.318 215.618 483.171 215.031 481.933 214.902L481.746 216.693C482.539 216.775 483.273 217.151 483.804 217.746L485.147 216.547ZM459.83 242.292H463.611V240.492H459.83V242.292ZM460.091 222.183H467.609V220.383H460.091V222.183ZM469.739 222.183H472.173V220.383H469.739V222.183ZM474.998 222.183H480.69V220.383H474.998V222.183ZM460.091 227.21H473.259V225.41H460.091V227.21ZM475.693 227.21H478.996V225.41H475.693V227.21ZM460.091 232.237H466.175V230.437H460.091V232.237ZM469.26 232.237H472.563V230.437H469.26V232.237ZM474.563 232.237H477.431V230.437H474.563V232.237ZM460.091 237.264H467.261V235.465H460.091V237.264ZM470 237.264H472.173V235.465H470V237.264ZM475.302 237.264H480.69V235.465H475.302V237.264ZM465.829 242.292H476.085V240.492H465.829V242.292Z" fill="#008CFF"/>
<path d="M412.841 227.292V188.584L388.12 227.292H412.841ZM411.193 270.941V250.351H358.455V228.943L407.97 158.112H437.562V227.376H450.747V250.351H437.562V270.941H411.193Z" fill="#008CFF"/>
<path d="M51.9142 256.117V253.646H6.31756C4.64203 253.646 3.03511 254.307 1.85036 255.485C0.665605 256.663 0 258.26 0 259.926L0 264.66C0 266.326 0.665605 267.923 1.85036 269.101C3.03511 270.279 4.64203 270.94 6.31756 270.94H51.9142V268.47H56.8584V256.117H51.9142Z" fill="#FFE650"/>
<path d="M105.476 262.057L105.976 262.057L106.276 261.658L108.38 258.854L120.957 261.073L120.957 263.512L108.38 265.731L106.276 262.928L105.976 262.528L105.476 262.528L57.8583 262.528L57.8583 262.057L105.476 262.057Z" stroke="#3C3C3C" stroke-width="2" stroke-miterlimit="10"/>
<path d="M49.0296 258.587H6.5918" stroke="#3C3C3C" stroke-width="1.8"/>
<path d="M52.7383 256.116V268.47" stroke="#3C3C3C" stroke-width="1.8"/>
<path d="M49.0296 265.999H6.5918" stroke="#3C3C3C" stroke-width="1.8"/>
<path d="M279.331 195.45C283.025 195.447 286.636 196.538 289.709 198.587C292.782 200.635 295.178 203.548 296.595 206.958C298.011 210.367 298.384 214.12 297.667 217.741C296.949 221.362 295.173 224.69 292.564 227.302C289.954 229.915 286.628 231.695 283.006 232.418C279.383 233.141 275.628 232.775 272.214 231.365C268.801 229.955 265.882 227.565 263.827 224.497C261.773 221.429 260.674 217.821 260.671 214.13C260.669 211.679 261.15 209.251 262.087 206.986C263.023 204.72 264.397 202.662 266.13 200.927C267.863 199.192 269.92 197.816 272.185 196.876C274.45 195.936 276.879 195.451 279.331 195.45ZM223.312 204.827L223.328 223.492L238.411 223.48C239.466 228.085 241.295 232.478 243.82 236.472L233.155 247.148L246.375 260.337L257.039 249.661C261.038 252.177 265.435 253.997 270.043 255.043L270.056 270.117L288.731 270.102L288.718 255.028C293.326 253.973 297.722 252.145 301.718 249.622L312.4 260.28L325.598 247.071L314.911 236.409C317.43 232.413 319.251 228.019 320.298 223.413L335.381 223.401L335.366 204.736L320.283 204.749C319.229 200.145 317.4 195.754 314.874 191.763L325.543 181.083L312.323 167.894L301.659 178.57C297.659 176.053 293.26 174.232 288.651 173.186L288.638 158.112L269.962 158.127L269.975 173.202C265.368 174.255 260.974 176.083 256.98 178.608L246.298 167.949L233.105 181.158L243.783 191.815C241.264 195.813 239.442 200.209 238.395 204.816L223.312 204.827Z" fill="#008CFF"/>
<path d="M296.652 191.052C291.831 187.434 285.84 185.29 279.347 185.29C263.419 185.29 250.506 198.195 250.506 214.114C250.506 224.953 256.491 234.394 265.338 239.317" stroke="#3C3C3C" stroke-width="1.8"/>
<path d="M270.078 270.22H288.722" stroke="#3C3C3C" stroke-width="1.8"/>
<path d="M103.823 168.545C105.018 168.544 106.186 168.897 107.181 169.56C108.175 170.222 108.95 171.165 109.408 172.268C109.866 173.371 109.987 174.585 109.755 175.757C109.523 176.928 108.948 178.005 108.104 178.85C107.26 179.695 106.184 180.271 105.012 180.505C103.84 180.739 102.625 180.621 101.52 180.164C100.416 179.708 99.4717 178.935 98.8069 177.942C98.1422 176.95 97.7868 175.783 97.7858 174.588C97.7852 173.795 97.9407 173.01 98.2438 172.277C98.5468 171.544 98.9913 170.878 99.5519 170.317C100.112 169.756 100.778 169.31 101.511 169.006C102.244 168.702 103.029 168.545 103.823 168.545ZM85.6992 171.579L85.7043 177.617L90.584 177.613C90.9254 179.103 91.5171 180.525 92.3339 181.817L88.8836 185.271L93.1605 189.538L96.6108 186.084C97.9045 186.898 99.327 187.487 100.818 187.825L100.822 192.702L106.864 192.697L106.86 187.82C108.351 187.479 109.773 186.888 111.066 186.071L114.522 189.519L118.792 185.246L115.334 181.796C116.149 180.504 116.738 179.082 117.077 177.592L121.957 177.588L121.952 171.549L117.072 171.553C116.731 170.064 116.139 168.643 115.322 167.352L118.774 163.897L114.497 159.63L111.047 163.084C109.752 162.269 108.329 161.68 106.838 161.342L106.834 156.465L100.792 156.47L100.796 161.347C99.3054 161.688 97.8837 162.279 96.5917 163.096L93.1357 159.647L88.8673 163.921L92.3219 167.369C91.5069 168.662 90.9176 170.084 90.5789 171.575L85.6992 171.579Z" fill="#FFE650"/>
<path d="M103.823 168.545L103.824 169.445H103.824L103.823 168.545ZM97.7858 174.588L98.6858 174.588V174.588L97.7858 174.588ZM85.6992 171.579L85.6985 170.679L84.7985 170.679L84.7992 171.579L85.6992 171.579ZM85.7043 177.617L84.8043 177.618L84.805 178.518L85.705 178.517L85.7043 177.617ZM90.584 177.613L91.4612 177.412L91.3009 176.713L90.5832 176.713L90.584 177.613ZM92.3339 181.817L92.9706 182.453L93.479 181.944L93.0947 181.336L92.3339 181.817ZM88.8836 185.271L88.2469 184.635L87.6104 185.272L88.248 185.908L88.8836 185.271ZM93.1605 189.538L92.5249 190.175L93.1616 190.81L93.7973 190.174L93.1605 189.538ZM96.6108 186.084L97.0902 185.322L96.482 184.939L95.9741 185.448L96.6108 186.084ZM100.818 187.825L101.718 187.824L101.717 187.106L101.017 186.947L100.818 187.825ZM100.822 192.702L99.922 192.703L99.9227 193.603L100.823 193.602L100.822 192.702ZM106.864 192.697L106.865 193.597L107.765 193.596L107.764 192.696L106.864 192.697ZM106.86 187.82L106.659 186.943L105.959 187.103L105.96 187.821L106.86 187.82ZM111.066 186.071L111.701 185.434L111.193 184.926L110.585 185.31L111.066 186.071ZM114.522 189.519L113.886 190.156L114.523 190.792L115.158 190.155L114.522 189.519ZM118.792 185.246L119.428 185.882L120.065 185.245L119.427 184.609L118.792 185.246ZM115.334 181.796L114.573 181.317L114.189 181.925L114.698 182.434L115.334 181.796ZM117.077 177.592L117.076 176.692L116.359 176.692L116.199 177.392L117.077 177.592ZM121.957 177.588L121.957 178.488L122.857 178.487L122.857 177.587L121.957 177.588ZM121.952 171.549L122.852 171.548L122.851 170.649L121.951 170.649L121.952 171.549ZM117.072 171.553L116.195 171.754L116.355 172.454L117.073 172.453L117.072 171.553ZM115.322 167.352L114.685 166.716L114.177 167.225L114.562 167.833L115.322 167.352ZM118.774 163.897L119.411 164.533L120.047 163.895L119.409 163.259L118.774 163.897ZM114.497 159.63L115.133 158.993L114.496 158.357L113.86 158.994L114.497 159.63ZM111.047 163.084L110.567 163.846L111.175 164.228L111.683 163.72L111.047 163.084ZM106.838 161.342L105.938 161.342L105.939 162.06L106.639 162.219L106.838 161.342ZM106.834 156.465L107.734 156.464L107.733 155.564L106.833 155.565L106.834 156.465ZM100.792 156.47L100.791 155.57L99.8911 155.57L99.8918 156.47L100.792 156.47ZM100.796 161.347L100.996 162.224L101.696 162.064L101.696 161.346L100.796 161.347ZM96.5917 163.096L95.956 163.733L96.4649 164.241L97.0726 163.857L96.5917 163.096ZM93.1357 159.647L93.7713 159.01L93.1346 158.375L92.4989 159.011L93.1357 159.647ZM88.8673 163.921L88.2305 163.285L87.5943 163.922L88.2316 164.558L88.8673 163.921ZM92.3219 167.369L93.0833 167.849L93.4668 167.24L92.9576 166.732L92.3219 167.369ZM90.5789 171.575L90.5796 172.475L91.2975 172.474L91.4566 171.774L90.5789 171.575ZM103.824 169.445C104.841 169.444 105.835 169.745 106.681 170.309L107.68 168.811C106.537 168.049 105.195 167.644 103.822 167.645L103.824 169.445ZM106.681 170.309C107.527 170.873 108.187 171.675 108.577 172.613L110.239 171.923C109.713 170.655 108.822 169.572 107.68 168.811L106.681 170.309ZM108.577 172.613C108.967 173.552 109.07 174.585 108.872 175.582L110.638 175.932C110.905 174.585 110.766 173.19 110.239 171.923L108.577 172.613ZM108.872 175.582C108.675 176.579 108.186 177.495 107.467 178.214L108.741 179.486C109.711 178.515 110.371 177.278 110.638 175.932L108.872 175.582ZM107.467 178.214C106.749 178.933 105.833 179.423 104.835 179.623L105.188 181.388C106.534 181.119 107.771 180.457 108.741 179.486L107.467 178.214ZM104.835 179.623C103.838 179.822 102.804 179.721 101.864 179.333L101.177 180.996C102.446 181.52 103.842 181.657 105.188 181.388L104.835 179.623ZM101.864 179.333C100.924 178.944 100.12 178.286 99.5547 177.442L98.0591 178.443C98.8229 179.584 99.9079 180.472 101.177 180.996L101.864 179.333ZM99.5547 177.442C98.989 176.597 98.6867 175.604 98.6858 174.588L96.8858 174.589C96.887 175.962 97.2953 177.303 98.0591 178.443L99.5547 177.442ZM98.6858 174.588C98.6853 173.913 98.8176 173.244 99.0755 172.621L97.4121 171.933C97.0639 172.775 96.885 173.678 96.8858 174.589L98.6858 174.588ZM99.0755 172.621C99.3333 171.997 99.7116 171.43 100.189 170.953L98.9151 169.681C98.271 170.326 97.7603 171.091 97.4121 171.933L99.0755 172.621ZM100.189 170.953C100.666 170.475 101.232 170.096 101.856 169.837L101.166 168.175C100.324 168.524 99.5593 169.036 98.9151 169.681L100.189 170.953ZM101.856 169.837C102.48 169.579 103.148 169.445 103.824 169.445L103.822 167.645C102.911 167.645 102.008 167.826 101.166 168.175L101.856 169.837ZM84.7992 171.579L84.8043 177.618L86.6043 177.617L86.5992 171.578L84.7992 171.579ZM85.705 178.517L90.5847 178.513L90.5832 176.713L85.7035 176.717L85.705 178.517ZM89.7067 177.814C90.0708 179.404 90.7019 180.919 91.5732 182.298L93.0947 181.336C92.3322 180.13 91.7799 178.803 91.4612 177.412L89.7067 177.814ZM91.6972 181.181L88.2469 184.635L89.5204 185.907L92.9706 182.453L91.6972 181.181ZM88.248 185.908L92.5249 190.175L93.7962 188.9L89.5193 184.634L88.248 185.908ZM93.7973 190.174L97.2476 186.72L95.9741 185.448L92.5238 188.902L93.7973 190.174ZM96.1315 186.845C97.5113 187.714 99.0286 188.342 100.619 188.702L101.017 186.947C99.6254 186.631 98.2977 186.082 97.0902 185.322L96.1315 186.845ZM99.9178 187.826L99.922 192.703L101.722 192.701L101.718 187.824L99.9178 187.826ZM100.823 193.602L106.865 193.597L106.863 191.797L100.821 191.802L100.823 193.602ZM107.764 192.696L107.76 187.819L105.96 187.821L105.964 192.698L107.764 192.696ZM107.061 188.697C108.651 188.334 110.167 187.703 111.546 186.832L110.585 185.31C109.378 186.072 108.051 186.624 106.659 186.943L107.061 188.697ZM110.43 186.708L113.886 190.156L115.157 188.882L111.701 185.434L110.43 186.708ZM115.158 190.155L119.428 185.882L118.155 184.61L113.885 188.883L115.158 190.155ZM119.427 184.609L115.97 181.159L114.698 182.434L118.156 185.883L119.427 184.609ZM116.095 182.276C116.965 180.897 117.593 179.381 117.955 177.791L116.199 177.392C115.883 178.783 115.333 180.11 114.573 181.317L116.095 182.276ZM117.078 178.492L121.957 178.488L121.956 176.688L117.076 176.692L117.078 178.492ZM122.857 177.587L122.852 171.548L121.052 171.55L121.057 177.589L122.857 177.587ZM121.951 170.649L117.071 170.653L117.073 172.453L121.952 172.449L121.951 170.649ZM117.949 171.352C117.585 169.764 116.954 168.248 116.083 166.871L114.562 167.833C115.324 169.038 115.876 170.364 116.195 171.754L117.949 171.352ZM115.959 167.988L119.411 164.533L118.137 163.261L114.685 166.716L115.959 167.988ZM119.409 163.259L115.133 158.993L113.861 160.267L118.138 164.534L119.409 163.259ZM113.86 158.994L110.41 162.448L111.683 163.72L115.134 160.266L113.86 158.994ZM111.526 162.322C110.146 161.453 108.628 160.825 107.037 160.464L106.639 162.219C108.031 162.535 109.359 163.085 110.567 163.846L111.526 162.322ZM107.738 161.341L107.734 156.464L105.934 156.466L105.938 161.342L107.738 161.341ZM106.833 155.565L100.791 155.57L100.793 157.37L106.835 157.365L106.833 155.565ZM99.8918 156.47L99.8958 161.348L101.696 161.346L101.692 156.469L99.8918 156.47ZM100.595 160.47C99.0054 160.833 97.489 161.464 96.1107 162.335L97.0726 163.857C98.2785 163.094 99.6053 162.542 100.996 162.224L100.595 160.47ZM97.2273 162.459L93.7713 159.01L92.5 160.284L95.956 163.733L97.2273 162.459ZM92.4989 159.011L88.2305 163.285L89.5041 164.557L93.7724 160.283L92.4989 159.011ZM88.2316 164.558L91.6861 168.006L92.9576 166.732L89.5031 163.284L88.2316 164.558ZM91.5604 166.889C90.6911 168.269 90.0625 169.786 89.7013 171.376L91.4566 171.774C91.7726 170.383 92.3227 169.056 93.0833 167.849L91.5604 166.889ZM90.5782 170.675L85.6985 170.679L85.6999 172.479L90.5796 172.475L90.5782 170.675Z" fill="#3C3C3C"/>
<path d="M279.347 148.229C315.755 148.229 345.27 177.727 345.27 214.114C345.27 250.502 315.755 280 279.347 280C269.491 280 260.139 277.838 251.742 273.963" stroke="#3C3C3C" stroke-width="2" stroke-dasharray="3 3"/>
<path d="M104.24 148.229C89.4493 148.229 77.459 160.213 77.459 174.995C77.459 183.752 81.6666 191.526 88.1714 196.41" stroke="#3C3C3C" stroke-width="2" stroke-dasharray="3 3"/>
<path d="M104.24 148.229H279.348" stroke="#3C3C3C" stroke-width="2" stroke-dasharray="3 3"/>
<path d="M246.292 168.064L233.072 181.184" stroke="#3C3C3C" stroke-width="1.8"/>
<path d="M88.1719 196.408L143.794 222.733M251.743 273.823L197.768 248.278" stroke="#3C3C3C" stroke-width="2" stroke-dasharray="3 3"/>
<path d="M169.751 227.299V188.584L145.03 227.299H169.751ZM168.103 270.941V250.351H115.365V228.939L164.807 158.112H194.486V227.299L207.657 227.214V250.274H194.486V270.941H168.103Z" fill="#008CFF"/>
<path d="M168.104 270.941L168.104 269.294L194.473 269.294L194.473 270.941L168.104 270.941Z" fill="#3C3C3C"/>
<path d="M200.234 228.938L200.234 228.92L193.913 228.925L193.62 227.645C193.197 225.796 192.462 224.032 191.447 222.429L190.743 221.316L195.217 216.838L191.717 213.347L187.246 217.823L186.132 217.122C184.525 216.111 182.758 215.379 180.906 214.959L179.624 214.668L179.619 208.351L174.676 208.355L174.681 214.672L173.399 214.965C171.549 215.388 169.784 216.122 168.18 217.136L167.067 217.84L162.588 213.371L159.096 216.868L163.573 221.335L162.871 222.449C161.859 224.055 161.127 225.821 160.707 227.672L160.419 228.938H145.031L145.029 227.312L159.1 227.307C159.562 225.274 160.365 223.335 161.476 221.571L156.766 216.87L162.586 211.042L167.299 215.744C169.061 214.631 170.999 213.824 173.032 213.36L173.026 206.709L181.266 206.702L181.271 213.352C183.305 213.814 185.245 214.617 187.01 215.728L191.715 211.018L197.547 216.836L192.84 221.548C193.955 223.309 194.761 225.246 195.227 227.277L207.649 227.272V227.291H207.656V250.351H194.471V248.704H206.008V228.938H200.234Z" fill="#3C3C3C"/>
<path d="M186.74 228.938H185.026C184.996 228.844 184.965 228.749 184.931 228.656C184.883 228.52 184.832 228.385 184.776 228.252C184.151 226.748 183.094 225.462 181.738 224.559C180.383 223.655 178.789 223.173 177.16 223.175C176.532 223.175 175.908 223.247 175.299 223.389C174.859 223.491 174.427 223.63 174.007 223.804C173.008 224.219 172.1 224.826 171.336 225.591C170.571 226.356 169.965 227.265 169.552 228.264C169.46 228.486 169.379 228.711 169.307 228.938H167.593C167.708 228.495 167.853 228.06 168.029 227.635C168.525 226.436 169.252 225.346 170.169 224.427C171.087 223.509 172.176 222.78 173.375 222.283C174.574 221.785 175.86 221.529 177.158 221.528C179.114 221.526 181.026 222.104 182.653 223.188C184.28 224.273 185.548 225.815 186.298 227.62C186.477 228.05 186.624 228.491 186.74 228.938Z" fill="#3C3C3C"/>
<path d="M347.232 190.884C349.379 192.749 352.016 193.968 354.834 194.396C357.652 194.825 360.535 194.446 363.144 193.305C365.754 192.163 367.982 190.305 369.568 187.95C371.153 185.594 372.031 182.838 372.097 180.005L359.247 185.617L353.381 181.296L354.148 174.078L366.999 168.466C364.854 166.595 362.216 165.372 359.396 164.94C356.576 164.508 353.69 164.886 351.079 166.028C348.467 167.171 346.238 169.031 344.653 171.391C343.069 173.75 342.195 176.509 342.134 179.345L289.746 202.755C287.6 200.89 284.963 199.671 282.145 199.243C279.326 198.814 276.444 199.193 273.834 200.334C271.225 201.476 268.997 203.334 267.411 205.689C265.826 208.045 264.948 210.801 264.881 213.634L277.732 208.022L283.598 212.343L282.831 219.561L269.98 225.173C272.125 227.044 274.763 228.267 277.583 228.699C280.403 229.131 283.288 228.753 285.9 227.611C288.512 226.468 290.741 224.608 292.325 222.249C293.91 219.889 294.784 217.13 294.845 214.294L347.232 190.884Z" fill="#FFE650"/>
<path d="M292.525 208.425L343.875 185.434" stroke="#3C3C3C" stroke-width="1.8"/>
<path d="M266.574 212.879L277.699 207.938L283.467 212.055L282.643 219.467L271.93 224.409" stroke="#3C3C3C" stroke-width="1.8"/>
<path d="M352.77 117.565C354.21 117.564 355.617 117.989 356.815 118.787C358.012 119.586 358.946 120.721 359.498 122.05C360.05 123.378 360.195 124.841 359.916 126.252C359.636 127.663 358.944 128.96 357.927 129.978C356.91 130.996 355.614 131.69 354.202 131.972C352.791 132.254 351.327 132.111 349.997 131.561C348.666 131.012 347.529 130.08 346.728 128.885C345.928 127.689 345.5 126.283 345.498 124.845C345.498 123.889 345.685 122.943 346.05 122.061C346.415 121.178 346.95 120.375 347.626 119.699C348.301 119.023 349.103 118.487 349.985 118.121C350.868 117.755 351.814 117.566 352.77 117.565ZM330.939 121.22L330.946 128.493L336.823 128.489C337.235 130.283 337.947 131.995 338.931 133.552L334.775 137.712L339.927 142.852L344.083 138.691C345.641 139.672 347.355 140.381 349.15 140.789L349.155 146.663L356.433 146.657L356.429 140.783C358.224 140.372 359.937 139.66 361.495 138.676L365.657 142.83L370.801 137.682L366.636 133.527C367.617 131.97 368.327 130.257 368.735 128.463L374.613 128.458L374.607 121.184L368.729 121.189C368.318 119.395 367.606 117.684 366.621 116.128L370.779 111.966L365.628 106.826L361.472 110.987C359.913 110.006 358.198 109.296 356.402 108.889L356.397 103.014L349.119 103.02L349.124 108.895C347.329 109.305 345.616 110.018 344.06 111.001L339.897 106.848L334.756 111.996L338.917 116.148C337.935 117.706 337.225 119.42 336.817 121.215L330.939 121.22Z" fill="#FFE650"/>
<path d="M352.77 117.565L352.771 118.465H352.771L352.77 117.565ZM345.498 124.845L346.398 124.844V124.844L345.498 124.845ZM330.939 121.22L330.939 120.32L330.039 120.32L330.039 121.22L330.939 121.22ZM330.946 128.493L330.046 128.494L330.046 129.394L330.946 129.393L330.946 128.493ZM336.823 128.489L337.701 128.288L337.54 127.588L336.823 127.589L336.823 128.489ZM338.931 133.552L339.568 134.188L340.076 133.679L339.692 133.071L338.931 133.552ZM334.775 137.712L334.138 137.076L333.502 137.713L334.14 138.349L334.775 137.712ZM339.927 142.852L339.291 143.489L339.928 144.124L340.564 143.488L339.927 142.852ZM344.083 138.691L344.562 137.93L343.954 137.547L343.446 138.055L344.083 138.691ZM349.15 140.789L350.05 140.788L350.05 140.07L349.35 139.911L349.15 140.789ZM349.155 146.663L348.255 146.664L348.256 147.564L349.156 147.563L349.155 146.663ZM356.433 146.657L356.434 147.557L357.334 147.557L357.333 146.657L356.433 146.657ZM356.429 140.783L356.228 139.905L355.528 140.066L355.529 140.784L356.429 140.783ZM361.495 138.676L362.13 138.039L361.622 137.531L361.014 137.915L361.495 138.676ZM365.657 142.83L365.022 143.467L365.658 144.102L366.294 143.466L365.657 142.83ZM370.801 137.682L371.437 138.318L372.074 137.681L371.436 137.045L370.801 137.682ZM366.636 133.527L365.874 133.047L365.491 133.656L366 134.164L366.636 133.527ZM368.735 128.463L368.735 127.563L368.017 127.563L367.858 128.263L368.735 128.463ZM374.613 128.458L374.614 129.358L375.514 129.357L375.513 128.457L374.613 128.458ZM374.607 121.184L375.507 121.183L375.506 120.283L374.606 120.284L374.607 121.184ZM368.729 121.189L367.852 121.39L368.012 122.089L368.73 122.089L368.729 121.189ZM366.621 116.128L365.985 115.492L365.476 116.002L365.861 116.61L366.621 116.128ZM370.779 111.966L371.416 112.602L372.053 111.965L371.415 111.329L370.779 111.966ZM365.628 106.826L366.263 106.189L365.626 105.554L364.991 106.19L365.628 106.826ZM361.472 110.987L360.992 111.749L361.6 112.131L362.108 111.623L361.472 110.987ZM356.402 108.889L355.502 108.889L355.503 109.607L356.203 109.766L356.402 108.889ZM356.397 103.014L357.297 103.013L357.296 102.113L356.396 102.114L356.397 103.014ZM349.119 103.02L349.118 102.12L348.218 102.121L348.219 103.021L349.119 103.02ZM349.124 108.895L349.324 109.772L350.025 109.612L350.024 108.894L349.124 108.895ZM344.06 111.001L343.424 111.639L343.933 112.146L344.541 111.762L344.06 111.001ZM339.897 106.848L340.533 106.211L339.896 105.575L339.26 106.212L339.897 106.848ZM334.756 111.996L334.119 111.36L333.483 111.997L334.12 112.633L334.756 111.996ZM338.917 116.148L339.678 116.628L340.062 116.02L339.553 115.511L338.917 116.148ZM336.817 121.215L336.818 122.115L337.536 122.114L337.695 121.414L336.817 121.215ZM352.771 118.465C354.033 118.464 355.266 118.837 356.315 119.536L357.314 118.039C355.968 117.142 354.387 116.664 352.769 116.665L352.771 118.465ZM356.315 119.536C357.365 120.236 358.183 121.231 358.667 122.395L360.329 121.704C359.709 120.211 358.66 118.936 357.314 118.039L356.315 119.536ZM358.667 122.395C359.151 123.559 359.278 124.841 359.033 126.077L360.799 126.427C361.113 124.841 360.949 123.198 360.329 121.704L358.667 122.395ZM359.033 126.077C358.788 127.314 358.181 128.45 357.29 129.342L358.564 130.614C359.707 129.47 360.484 128.013 360.799 126.427L359.033 126.077ZM357.29 129.342C356.399 130.234 355.263 130.842 354.026 131.089L354.378 132.854C355.964 132.538 357.421 131.758 358.564 130.614L357.29 129.342ZM354.026 131.089C352.789 131.336 351.506 131.211 350.34 130.729L349.653 132.393C351.148 133.011 352.792 133.171 354.378 132.854L354.026 131.089ZM350.34 130.729C349.174 130.248 348.178 129.432 347.476 128.384L345.98 129.386C346.88 130.729 348.158 131.776 349.653 132.393L350.34 130.729ZM347.476 128.384C346.774 127.336 346.399 126.104 346.398 124.844L344.598 124.845C344.6 126.462 345.081 128.042 345.98 129.386L347.476 128.384ZM346.398 124.844C346.398 124.007 346.562 123.178 346.882 122.404L345.218 121.717C344.808 122.709 344.597 123.772 344.598 124.845L346.398 124.844ZM346.882 122.404C347.201 121.631 347.671 120.928 348.262 120.336L346.989 119.063C346.23 119.823 345.628 120.725 345.218 121.717L346.882 122.404ZM348.262 120.336C348.854 119.743 349.557 119.273 350.33 118.952L349.641 117.29C348.649 117.701 347.748 118.304 346.989 119.063L348.262 120.336ZM350.33 118.952C351.104 118.631 351.933 118.466 352.771 118.465L352.77 116.665C351.696 116.666 350.632 116.878 349.641 117.29L350.33 118.952ZM330.039 121.22L330.046 128.494L331.846 128.493L331.839 121.219L330.039 121.22ZM330.946 129.393L336.824 129.389L336.823 127.589L330.945 127.593L330.946 129.393ZM335.946 128.69C336.38 130.584 337.132 132.39 338.17 134.033L339.692 133.071C338.762 131.6 338.089 129.983 337.701 128.288L335.946 128.69ZM338.295 132.916L334.138 137.076L335.412 138.348L339.568 134.188L338.295 132.916ZM334.14 138.349L339.291 143.489L340.563 142.215L335.411 137.075L334.14 138.349ZM340.564 143.488L344.72 139.327L343.446 138.055L339.29 142.216L340.564 143.488ZM343.604 139.453C345.248 140.488 347.056 141.236 348.951 141.666L349.35 139.911C347.653 139.526 346.034 138.856 344.562 137.93L343.604 139.453ZM348.25 140.789L348.255 146.664L350.055 146.663L350.05 140.788L348.25 140.789ZM349.156 147.563L356.434 147.557L356.433 145.757L349.155 145.763L349.156 147.563ZM357.333 146.657L357.329 140.782L355.529 140.784L355.533 146.658L357.333 146.657ZM356.629 141.66C358.524 141.227 360.332 140.475 361.975 139.437L361.014 137.915C359.543 138.844 357.924 139.517 356.228 139.905L356.629 141.66ZM360.859 139.313L365.022 143.467L366.293 142.193L362.13 138.039L360.859 139.313ZM366.294 143.466L371.437 138.318L370.164 137.046L365.021 142.194L366.294 143.466ZM371.436 137.045L367.271 132.89L366 134.164L370.165 138.319L371.436 137.045ZM367.397 134.007C368.433 132.364 369.182 130.556 369.613 128.662L367.858 128.263C367.472 129.958 366.802 131.576 365.874 133.047L367.397 134.007ZM368.736 129.363L374.614 129.358L374.613 127.558L368.735 127.563L368.736 129.363ZM375.513 128.457L375.507 121.183L373.707 121.185L373.713 128.459L375.513 128.457ZM374.606 120.284L368.729 120.289L368.73 122.089L374.608 122.084L374.606 120.284ZM369.607 120.988C369.173 119.095 368.421 117.289 367.382 115.647L365.861 116.61C366.791 118.079 367.464 119.695 367.852 121.39L369.607 120.988ZM367.258 116.764L371.416 112.602L370.143 111.33L365.985 115.492L367.258 116.764ZM371.415 111.329L366.263 106.189L364.992 107.464L370.144 112.603L371.415 111.329ZM364.991 106.19L360.835 110.351L362.108 111.623L366.264 107.463L364.991 106.19ZM361.951 110.225C360.306 109.19 358.497 108.441 356.601 108.011L356.203 109.766C357.9 110.152 359.519 110.822 360.992 111.749L361.951 110.225ZM357.302 108.888L357.297 103.013L355.497 103.015L355.502 108.889L357.302 108.888ZM356.396 102.114L349.118 102.12L349.12 103.92L356.398 103.914L356.396 102.114ZM348.219 103.021L348.224 108.896L350.024 108.894L350.019 103.019L348.219 103.021ZM348.923 108.017C347.029 108.451 345.222 109.202 343.579 110.241L344.541 111.762C346.011 110.833 347.629 110.16 349.324 109.772L348.923 108.017ZM344.696 110.364L340.533 106.211L339.261 107.485L343.424 111.639L344.696 110.364ZM339.26 106.212L334.119 111.36L335.392 112.632L340.534 107.484L339.26 106.212ZM334.12 112.633L338.281 116.785L339.553 115.511L335.391 111.359L334.12 112.633ZM338.155 115.669C337.119 117.313 336.37 119.121 335.94 121.016L337.695 121.414C338.08 119.718 338.751 118.1 339.678 116.628L338.155 115.669ZM336.817 120.315L330.939 120.32L330.94 122.12L336.818 122.115L336.817 120.315Z" fill="#3C3C3C"/>
<path d="M436.827 104.662C437.234 104.661 437.633 104.782 437.972 105.008C438.311 105.234 438.575 105.555 438.731 105.931C438.887 106.307 438.928 106.721 438.849 107.12C438.77 107.52 438.574 107.887 438.286 108.175C437.999 108.463 437.632 108.659 437.232 108.739C436.833 108.819 436.419 108.778 436.042 108.623C435.666 108.467 435.344 108.204 435.117 107.865C434.89 107.527 434.769 107.129 434.769 106.722C434.769 106.452 434.822 106.184 434.925 105.934C435.028 105.684 435.18 105.457 435.371 105.266C435.562 105.074 435.789 104.923 436.039 104.819C436.289 104.715 436.556 104.662 436.827 104.662ZM430.648 105.696L430.65 107.755L432.314 107.753C432.43 108.261 432.632 108.746 432.91 109.186L431.734 110.364L433.192 111.818L434.368 110.641C434.809 110.918 435.294 111.119 435.802 111.234L435.804 112.897L437.864 112.895L437.862 111.233C438.371 111.116 438.855 110.915 439.296 110.636L440.474 111.812L441.93 110.355L440.751 109.179C441.029 108.738 441.23 108.254 441.345 107.746L443.009 107.745L443.007 105.686L441.344 105.687C441.227 105.18 441.026 104.695 440.747 104.255L441.924 103.077L440.466 101.622L439.29 102.8C438.848 102.522 438.363 102.321 437.855 102.206L437.853 100.543L435.794 100.545L435.795 102.208C435.287 102.324 434.802 102.526 434.362 102.804L433.184 101.628L431.728 103.085L432.906 104.261C432.628 104.702 432.427 105.186 432.312 105.695L430.648 105.696Z" fill="#008CFF"/>
<path d="M364.723 150.583C364.363 150.747 363.999 150.903 363.631 151.052L364.381 152.906C364.775 152.747 365.166 152.579 365.552 152.403L364.723 150.583ZM360.248 152.173C359.485 152.372 358.71 152.54 357.924 152.674L358.262 154.646C359.105 154.501 359.936 154.322 360.753 154.108L360.248 152.173ZM354.378 153.05C353.984 153.067 353.587 153.075 353.189 153.075V155.075C353.615 155.075 354.04 155.066 354.462 155.048L354.378 153.05ZM353.189 153.075C352.863 153.075 352.538 153.069 352.215 153.058L352.146 155.057C352.492 155.069 352.84 155.075 353.189 155.075V153.075ZM349.312 152.808C348.667 152.718 348.029 152.606 347.399 152.473L346.985 154.429C347.661 154.572 348.345 154.692 349.036 154.788L349.312 152.808ZM344.584 151.721C343.966 151.52 343.357 151.299 342.759 151.057L342.009 152.911C342.651 153.171 343.304 153.408 343.967 153.623L344.584 151.721ZM340.119 149.825C339.546 149.52 338.985 149.196 338.437 148.853L337.376 150.548C337.964 150.916 338.565 151.264 339.179 151.59L340.119 149.825ZM336.051 147.18C335.54 146.781 335.044 146.364 334.562 145.931L333.224 147.417C333.74 147.882 334.272 148.328 334.819 148.756L336.051 147.18ZM332.501 143.871C332.067 143.39 331.65 142.894 331.25 142.384L329.676 143.617C330.104 144.164 330.551 144.695 331.015 145.211L332.501 143.871ZM329.576 139.999C329.233 139.451 328.908 138.89 328.602 138.318L326.838 139.259C327.165 139.873 327.513 140.474 327.881 141.061L329.576 139.999ZM327.369 135.679C327.127 135.081 326.905 134.472 326.704 133.854L324.802 134.472C325.017 135.135 325.255 135.788 325.515 136.429L327.369 135.679ZM325.951 131.04C325.818 130.41 325.706 129.772 325.616 129.127L323.635 129.403C323.731 130.095 323.851 130.779 323.994 131.454L325.951 131.04ZM325.364 126.224C325.353 125.901 325.348 125.576 325.348 125.25H323.348C323.348 125.599 323.354 125.947 323.366 126.293L325.364 126.224ZM325.348 125.25C325.348 124.924 325.353 124.6 325.364 124.276L323.366 124.208C323.354 124.554 323.348 124.901 323.348 125.25H325.348ZM325.616 121.373C325.706 120.728 325.818 120.09 325.951 119.461L323.994 119.046C323.851 119.722 323.731 120.406 323.635 121.097L325.616 121.373ZM326.704 116.646C326.905 116.028 327.127 115.42 327.369 114.821L325.515 114.071C325.255 114.713 325.017 115.365 324.802 116.028L326.704 116.646ZM328.602 112.183C328.908 111.61 329.233 111.049 329.576 110.501L327.881 109.439C327.513 110.027 327.165 110.628 326.838 111.242L328.602 112.183ZM331.25 108.117C331.65 107.606 332.067 107.11 332.501 106.629L331.015 105.29C330.551 105.805 330.104 106.337 329.676 106.884L331.25 108.117ZM334.562 104.569C335.044 104.136 335.54 103.719 336.051 103.32L334.819 101.744C334.272 102.172 333.74 102.619 333.224 103.083L334.562 104.569ZM338.437 101.648C338.985 101.305 339.546 100.98 340.119 100.675L339.179 98.9099C338.565 99.2368 337.964 99.5846 337.376 99.9522L338.437 101.648ZM342.759 99.4434C343.357 99.2016 343.966 98.9799 344.584 98.7794L343.967 96.877C343.304 97.0921 342.651 97.3298 342.009 97.5891L342.759 99.4434ZM347.399 98.0276C348.029 97.8945 348.667 97.7826 349.312 97.6928L349.036 95.7119C348.345 95.8082 347.661 95.9281 346.985 96.0709L347.399 98.0276ZM352.215 97.442C352.538 97.4309 352.863 97.4253 353.189 97.4253V95.4253C352.84 95.4253 352.492 95.4313 352.146 95.4432L352.215 97.442ZM353.189 97.4253H354.173V95.4253H353.189V97.4253ZM357.125 97.4253H359.093V95.4253H357.125V97.4253ZM362.045 97.4253H364.013V95.4253H362.045V97.4253ZM366.965 97.4253H368.933V95.4253H366.965V97.4253ZM371.885 97.4253H373.853V95.4253H371.885V97.4253ZM376.805 97.4253H378.773V95.4253H376.805V97.4253ZM381.725 97.4253H383.693V95.4253H381.725V97.4253ZM386.645 97.4253H388.613V95.4253H386.645V97.4253ZM391.565 97.4253H393.533V95.4253H391.565V97.4253ZM396.485 97.4253H398.453V95.4253H396.485V97.4253ZM401.405 97.4253H403.373V95.4253H401.405V97.4253ZM406.325 97.4253H408.293V95.4253H406.325V97.4253ZM411.244 97.4253H413.212V95.4253H411.244V97.4253ZM416.164 97.4253H418.132V95.4253H416.164V97.4253ZM421.084 97.4253H423.052V95.4253H421.084V97.4253ZM426.004 97.4253H427.972V95.4253H426.004V97.4253ZM430.924 97.4253H432.892V95.4253H430.924V97.4253ZM435.844 97.4253H436.828V95.4253H435.844V97.4253ZM436.828 97.4253C437.157 97.4253 437.482 97.4423 437.802 97.4755L438.008 95.4862C437.62 95.4459 437.227 95.4253 436.828 95.4253V97.4253ZM440.611 98.226C441.208 98.4918 441.771 98.8186 442.294 99.1987L443.47 97.5811C442.835 97.1196 442.151 96.7224 441.425 96.3991L440.611 98.226ZM444.353 101.256C444.734 101.779 445.061 102.342 445.327 102.938L447.153 102.123C446.83 101.398 446.432 100.713 445.97 100.079L444.353 101.256ZM446.078 105.747C446.112 106.066 446.129 106.391 446.129 106.72H448.129C448.129 106.322 448.108 105.928 448.068 105.54L446.078 105.747ZM446.129 106.72C446.129 107.084 446.108 107.444 446.067 107.797L448.054 108.026C448.103 107.597 448.129 107.161 448.129 106.72H446.129ZM445.149 110.878C444.825 111.524 444.428 112.127 443.968 112.677L445.502 113.96C446.06 113.293 446.543 112.56 446.936 111.775L445.149 110.878ZM441.509 114.754C441.199 114.934 440.879 115.097 440.548 115.241L441.349 117.074C441.751 116.899 442.14 116.701 442.516 116.481L441.509 114.754ZM365.561 152.51L366.452 152.094L365.606 150.282L364.714 150.698L365.561 152.51ZM369.128 150.844L370.912 150.011L370.066 148.199L368.282 149.032L369.128 150.844ZM373.588 148.761L375.371 147.927L374.525 146.115L372.741 146.949L373.588 148.761ZM378.047 146.678L379.831 145.844L378.984 144.032L377.201 144.866L378.047 146.678ZM382.507 144.594L384.29 143.761L383.444 141.949L381.66 142.782L382.507 144.594ZM386.966 142.511L388.75 141.678L387.903 139.866L386.12 140.699L386.966 142.511ZM391.426 140.428L393.209 139.595L392.363 137.783L390.579 138.616L391.426 140.428ZM395.885 138.345L397.669 137.512L396.822 135.7L395.039 136.533L395.885 138.345ZM400.345 136.262L402.128 135.429L401.282 133.617L399.498 134.45L400.345 136.262ZM404.804 134.179L406.588 133.345L405.741 131.533L403.958 132.367L404.804 134.179ZM409.263 132.096L411.047 131.262L410.201 129.45L408.417 130.284L409.263 132.096ZM413.723 130.012L415.507 129.179L414.66 127.367L412.877 128.2L413.723 130.012ZM418.182 127.929L419.966 127.096L419.12 125.284L417.336 126.117L418.182 127.929ZM422.642 125.846L424.426 125.013L423.579 123.201L421.795 124.034L422.642 125.846ZM427.101 123.763L428.885 122.93L428.039 121.118L426.255 121.951L427.101 123.763ZM431.561 121.68L433.345 120.847L432.498 119.035L430.714 119.868L431.561 121.68ZM436.02 119.597L437.804 118.763L436.958 116.951L435.174 117.785L436.02 119.597ZM440.48 117.514L441.372 117.097L440.525 115.285L439.633 115.702L440.48 117.514Z" fill="#3C3C3C"/>
<path d="M115.365 250.351V228.939L165.219 158.112" stroke="#3C3C3C" stroke-width="1.8"/>
<path d="M358.455 250.351V228.939L407.897 158.112" stroke="#3C3C3C" stroke-width="2"/>
<path d="M168.104 270.941V250.352" stroke="#3C3C3C" stroke-width="1.8"/>
<path d="M177.168 218.232C170.731 218.232 165.372 222.842 164.215 228.939" stroke="#3C3C3C" stroke-width="1.8"/>
<path d="M321.372 43.5889H275.227V85.5909H321.372V43.5889Z" fill="white" stroke="#3C3C3C" stroke-width="1.8" stroke-miterlimit="10"/>
<path d="M321.372 43.5889H275.227V54.7895H321.372V43.5889Z" fill="#008CFF"/>
<path d="M286.666 54.7886H321.372" stroke="#3C3C3C" stroke-width="1.8" stroke-miterlimit="10"/>
<path d="M314 69.8672L314.512 70.607L315.497 69.9246L314.568 69.1689L314 69.8672ZM283.168 69.8672L282.6 69.1689L281.671 69.9246L282.655 70.607L283.168 69.8672ZM300.353 62.9194L294.717 75.0891L296.351 75.8454L301.986 63.6757L300.353 62.9194ZM305.351 63.9957L313.432 70.5656L314.568 69.1689L306.486 62.599L305.351 63.9957ZM313.487 69.1275L305.406 74.7275L306.431 76.207L314.512 70.607L313.487 69.1275ZM290.68 62.5991L282.6 69.1689L283.736 70.5656L291.816 63.9957L290.68 62.5991ZM282.655 70.607L290.736 76.207L291.761 74.7275L283.681 69.1275L282.655 70.607Z" fill="#3C3C3C"/>
<path d="M321.372 43.5889H275.227V85.5909H321.372V43.5889Z" stroke="#3C3C3C" stroke-width="1.8" stroke-miterlimit="10"/>
<path d="M317 49C317 50.1046 316.15 51 315.101 51C314.052 51 313.202 50.1046 313.202 49C313.202 47.8954 314.052 47 315.101 47C316.15 47 317 47.8954 317 49Z" fill="white"/>
<path d="M310.399 49C310.399 50.1046 309.549 51 308.5 51C307.451 51 306.601 50.1046 306.601 49C306.601 47.8954 307.451 47 308.5 47C309.549 47 310.399 47.8954 310.399 49Z" fill="white"/>
<path d="M303.798 49C303.798 50.1046 302.948 51 301.899 51C300.85 51 300 50.1046 300 49C300 47.8954 300.85 47 301.899 47C302.948 47 303.798 47.8954 303.798 49Z" fill="white"/>
<path d="M467.009 266.567H425.203C425.827 267.9 426.817 269.027 428.059 269.817C429.301 270.607 430.742 271.027 432.214 271.027H459.998C461.47 271.027 462.912 270.607 464.153 269.817C465.395 269.027 466.386 267.9 467.009 266.567Z" fill="white" stroke="#3C3C3C" stroke-width="1.8" stroke-miterlimit="10"/>
<path d="M462.653 243.981C462.777 242.547 462.838 241.107 462.838 239.523H429.375C429.375 252.267 433.545 259.869 438.395 266.567H453.754C455.243 264.773 456.514 262.808 457.541 260.715C465.519 259.77 472.416 252.273 473.791 245.356C473.822 245.188 473.816 245.015 473.773 244.849C473.729 244.683 473.65 244.529 473.54 244.398C473.43 244.267 473.292 244.161 473.136 244.089C472.981 244.017 472.811 243.98 472.64 243.981L462.653 243.981ZM460.415 254.47C461.112 252.513 461.655 250.505 462.041 248.464H466.202C466.31 248.465 466.416 248.493 466.509 248.547C466.603 248.601 466.68 248.678 466.735 248.771C466.79 248.863 466.82 248.969 466.822 249.076C466.824 249.184 466.798 249.29 466.746 249.385C465.393 251.851 463.116 253.68 460.415 254.47Z" fill="white" stroke="#3C3C3C" stroke-width="1.8" stroke-miterlimit="10"/>
<path d="M434.656 245.371C434.872 249.895 436.294 254.28 438.775 258.071" stroke="#3C3C3C" stroke-width="1.8" stroke-miterlimit="10"/>
<path d="M389.768 227.292H412.841V191.055" stroke="#3C3C3C" stroke-width="2"/>
<rect x="213.586" y="101.8" width="52.9901" height="26.2512" rx="13.1256" fill="white"/>
<path d="M183.922 58.6211C186.595 55.9497 190 54.1304 193.707 53.3934C197.415 52.6563 201.258 53.0345 204.75 54.4803C208.242 55.926 211.227 58.3742 213.327 61.5154C215.427 64.6566 216.548 68.3497 216.548 72.1276C216.548 75.9055 215.427 79.5986 213.327 82.7398C211.227 85.881 208.242 88.3292 204.75 89.7749C201.258 91.2207 197.415 91.5989 193.707 90.8618C190 90.1248 186.595 88.3055 183.922 85.6341C180.343 82.0493 178.332 77.1919 178.332 72.1276C178.332 67.0633 180.343 62.2059 183.922 58.6211ZM180.191 54.8923C176.78 58.3012 174.457 62.6444 173.516 67.3728C172.574 72.1012 173.057 77.0023 174.903 81.4564C176.749 85.9104 179.875 89.7174 183.886 92.3959C187.897 95.0743 192.612 96.5039 197.436 96.5039C202.26 96.5039 206.975 95.0743 210.986 92.3959C214.997 89.7174 218.123 85.9104 219.969 81.4564C221.815 77.0023 222.297 72.1012 221.356 67.3728C220.415 62.6444 218.092 58.3012 214.681 54.8923C210.107 50.3216 203.904 47.7539 197.436 47.7539C190.968 47.7539 184.765 50.3216 180.191 54.8923Z" fill="#008CFF"/>
<path d="M174.398 67.5485C175.305 62.9948 177.542 58.8119 180.827 55.5289C185.232 51.1269 191.206 48.6539 197.436 48.6539C203.665 48.6539 209.64 51.1269 214.045 55.5289C217.33 58.8119 219.567 62.9948 220.474 67.5485C221.38 72.1022 220.915 76.8222 219.137 81.1118C217.359 85.4013 214.349 89.0678 210.486 91.6474C206.623 94.227 202.082 95.6039 197.436 95.6039C192.79 95.6039 188.249 94.227 184.386 91.6474C180.523 89.0678 177.512 85.4013 175.735 81.1118C173.957 76.8222 173.492 72.1022 174.398 67.5485Z" stroke="#3C3C3C" stroke-width="1.8"/>
<path d="M219.213 93.8912L214.264 88.9443" stroke="#3C3C3C" stroke-width="3" stroke-miterlimit="10"/>
<path d="M223.019 90.3574L215.676 97.6963L239.455 121.462L246.798 114.123L223.019 90.3574Z" fill="#FFE650" stroke="#3C3C3C" stroke-width="1.8" stroke-miterlimit="10"/>
<path d="M197.542 67.2931C199.253 67.3558 200.932 67.7759 202.471 68.5263C204.011 69.2767 205.375 70.3409 206.478 71.6503C205.161 73.3763 202.046 76.6908 197.541 76.6908C193.385 76.6908 190.085 73.3684 188.629 71.6092C189.738 70.3159 191.102 69.2652 192.635 68.5225C194.169 67.7799 195.839 67.3614 197.542 67.2931ZM197.542 65.4136C190.425 65.4136 186.244 71.57 186.244 71.57C186.244 71.57 190.79 78.5708 197.542 78.5708C204.814 78.5708 208.812 71.57 208.812 71.57C208.812 71.57 204.777 65.4136 197.542 65.4136ZM197.528 68.8886C196.914 68.8886 196.313 69.0706 195.803 69.4117C195.292 69.7527 194.894 70.2374 194.659 70.8046C194.424 71.3717 194.363 71.9957 194.482 72.5978C194.602 73.1998 194.898 73.7528 195.332 74.1869C195.767 74.6209 196.32 74.9165 196.922 75.0363C197.525 75.156 198.149 75.0945 198.717 74.8596C199.284 74.6247 199.769 74.2269 200.11 73.7165C200.451 73.2061 200.634 72.6061 200.634 71.9922C200.634 71.5846 200.553 71.1809 200.397 70.8043C200.241 70.4277 200.012 70.0855 199.724 69.7972C199.436 69.509 199.093 69.2804 198.716 69.1245C198.339 68.9686 197.935 68.8884 197.528 68.8886H197.528Z" fill="#3C3C3C"/>
<g clip-path="url(#clip0)">
<path d="M353.586 23.1274L367.184 27.6793L362.898 30.0624L367.823 34.9536L365.624 37.1467L360.705 32.2488L358.228 36.6113L353.586 23.1274Z" fill="white" stroke="#3C3C3C" stroke-width="1.8" stroke-miterlimit="10" stroke-linecap="round"/>
<path d="M349.443 18.919L345.113 14.6016" stroke="#3C3C3C" stroke-width="1.8" stroke-miterlimit="10"/>
<path d="M353.904 18.1726L354.049 13.1787" stroke="#3C3C3C" stroke-width="1.8" stroke-miterlimit="10"/>
<path d="M348.562 23.5005L343.844 23.356" stroke="#3C3C3C" stroke-width="1.8" stroke-miterlimit="10"/>
</g>
<path d="M128.035 270.117H223.623" stroke="#3C3C3C" stroke-width="1.8"/>
<path d="M351.039 271.027H506.782" stroke="#3C3C3C" stroke-width="2"/>
<path d="M514.816 271.027H528.001" stroke="#3C3C3C" stroke-width="2"/>
<path d="M330.645 271.027H343.829" stroke="#3C3C3C" stroke-width="2"/>
<path d="M90.863 98.9248H91.763V98.9171L91.7628 98.9093L90.863 98.9248ZM86.2845 97.2723L86.2615 98.172L86.2906 98.1728L86.3196 98.1716L86.2845 97.2723ZM79.3601 103.337L79.3337 104.237L80.1667 104.261L80.2551 103.432L79.3601 103.337ZM73.7545 108.948L74.6544 108.929L74.6541 108.92L73.7545 108.948ZM79.6424 114.672V113.772L79.6364 113.773L79.6424 114.672ZM124.911 108.411H125.811V108.394L125.81 108.376L124.911 108.411ZM118.359 102.153L117.465 102.259L117.56 103.058L118.365 103.053L118.359 102.153ZM111.825 96.3855L111.825 97.2855L111.831 97.2855L111.825 96.3855ZM109.856 96.7876C109.376 94.3175 107.985 92.1179 105.959 90.6246L104.891 92.0736C106.554 93.2992 107.696 95.1042 108.09 97.1311L109.856 96.7876ZM105.959 90.6246C103.933 89.1314 101.419 88.4535 98.9167 88.7251L99.1109 90.5146C101.165 90.2916 103.228 90.8481 104.891 92.0736L105.959 90.6246ZM98.9167 88.7251C96.414 88.9967 94.1047 90.198 92.4464 92.0912L93.8004 93.2772C95.1613 91.7236 97.0567 90.7375 99.1109 90.5146L98.9167 88.7251ZM92.4464 92.0912C90.8891 93.8689 89.4413 95.9782 89.9761 99.0778L91.7499 98.7718C91.3587 96.5046 92.3383 94.9463 93.8004 93.2772L92.4464 92.0912ZM89.963 98.9248C89.963 98.9275 89.963 98.9293 89.963 98.9303C89.963 98.9315 89.963 98.9307 89.963 98.9288C89.963 98.9279 89.963 98.9252 89.9631 98.9217C89.9631 98.9199 89.9632 98.9168 89.9633 98.913C89.9634 98.911 89.9635 98.9083 89.9636 98.9052C89.9637 98.9022 89.9639 98.8978 89.9642 98.8924C89.9643 98.8896 89.9645 98.8862 89.9648 98.8822C89.965 98.8784 89.9654 98.8733 89.9658 98.8673C89.9663 98.8615 89.967 98.8532 89.9681 98.8431C89.9686 98.8388 89.9697 98.8294 89.9704 98.8244C89.9712 98.8183 89.9731 98.8048 89.9743 98.7975C89.9758 98.7882 89.9796 98.7673 89.982 98.7555C89.9854 98.7399 89.9947 98.7031 90.0007 98.6819C90.0106 98.6509 90.0414 98.5726 90.0638 98.5261C90.1099 98.4471 90.2872 98.2483 90.4324 98.1497C90.7022 98.0546 91.2238 98.1156 91.4327 98.2434C91.5288 98.3346 91.6474 98.499 91.6795 98.5617C91.6962 98.6002 91.7199 98.6652 91.7278 98.6913C91.7329 98.7097 91.7408 98.7419 91.7438 98.7556C91.7459 98.7661 91.7494 98.785 91.7508 98.7933C91.7519 98.8001 91.7538 98.8125 91.7546 98.8181C91.7563 98.8309 91.7575 98.8415 91.7582 98.8484C91.7589 98.8556 91.7595 98.8617 91.7598 98.8662C91.7602 98.8708 91.7605 98.8747 91.7607 98.8779C91.7611 98.884 91.7614 98.889 91.7616 98.8923C91.7618 98.8957 91.7619 98.8987 91.762 98.9008C91.7622 98.905 91.7623 98.9083 91.7624 98.9102C91.7624 98.9123 91.7625 98.914 91.7625 98.9152C91.7626 98.9174 91.7626 98.9191 91.7626 98.9199C91.7627 98.9213 91.7627 98.9221 91.7627 98.9217C91.7626 98.921 91.7626 98.9194 91.7626 98.9172C91.7626 98.9149 91.7626 98.9133 91.7626 98.9126C91.7626 98.9122 91.7626 98.9129 91.7626 98.9144C91.7626 98.9151 91.7626 98.9167 91.7625 98.919C91.7625 98.9201 91.7625 98.9218 91.7625 98.9238C91.7625 98.9257 91.7624 98.9289 91.7623 98.9329C91.7623 98.935 91.7622 98.9378 91.7621 98.9411C91.7619 98.9442 91.7618 98.949 91.7615 98.9547C91.7613 98.9577 91.7611 98.9614 91.7609 98.9657C91.7606 98.9699 91.7602 98.9755 91.7597 98.9821C91.7592 98.9884 91.7584 98.9978 91.7571 99.0092C91.7565 99.0141 91.7552 99.0249 91.7544 99.0307C91.7534 99.0379 91.751 99.0538 91.7495 99.0626C91.7475 99.0738 91.7423 99.0998 91.739 99.1144C91.7341 99.1344 91.7201 99.1831 91.7105 99.2115C91.6937 99.2551 91.6365 99.3691 91.5921 99.4368C91.4918 99.5532 91.1307 99.7688 90.8643 99.8096C90.6009 99.7707 90.2421 99.5615 90.1415 99.4481C90.0968 99.3825 90.0385 99.2712 90.0209 99.2283C90.0109 99.2005 89.9961 99.1526 89.9908 99.1329C89.9872 99.1184 89.9815 99.0928 89.9792 99.0817C89.9776 99.073 89.9748 99.0572 89.9737 99.0501C89.9728 99.0443 89.9712 99.0336 89.9705 99.0287C89.969 99.0174 89.968 99.008 89.9674 99.0018C89.9667 98.9952 89.9662 98.9896 89.9658 98.9855C89.9655 98.9812 89.9652 98.9775 89.965 98.9746C89.9646 98.9688 89.9643 98.9641 89.9641 98.961C89.9639 98.9577 89.9638 98.9549 89.9637 98.9529C89.9635 98.9489 89.9634 98.9457 89.9633 98.9438C89.9632 98.9402 89.9631 98.9374 89.9631 98.9365C89.963 98.9345 89.963 98.9336 89.963 98.9349C89.963 98.9358 89.9631 98.9376 89.9631 98.9403L91.7628 98.9093C91.7628 98.9054 91.7627 98.9018 91.7626 98.8985C91.7626 98.8955 91.7625 98.8914 91.7624 98.8871C91.7623 98.8851 91.7622 98.8815 91.7621 98.8771C91.762 98.8749 91.7618 98.8715 91.7616 98.8672C91.7615 98.865 91.7614 98.8622 91.7612 98.8588C91.761 98.8556 91.7607 98.8508 91.7603 98.845C91.7601 98.842 91.7598 98.8383 91.7594 98.834C91.7591 98.8298 91.7586 98.8242 91.7579 98.8176C91.7573 98.8113 91.7562 98.8019 91.7547 98.7906C91.7541 98.7857 91.7525 98.775 91.7516 98.7692C91.7505 98.7621 91.7477 98.7463 91.746 98.7376C91.7438 98.7264 91.7381 98.7008 91.7345 98.6864C91.7292 98.6666 91.7143 98.6187 91.7043 98.5909C91.6868 98.548 91.6284 98.4368 91.5837 98.3711C91.4831 98.2577 91.1244 98.0485 90.861 98.0096C90.5945 98.0505 90.2335 98.266 90.1332 98.3824C90.0888 98.4501 90.0316 98.5641 90.0148 98.6077C90.0052 98.6362 89.9912 98.6848 89.9862 98.7048C89.9829 98.7195 89.9777 98.7454 89.9757 98.7566C89.9742 98.7654 89.9718 98.7814 89.9708 98.7885C89.97 98.7944 89.9687 98.8052 89.9681 98.8101C89.9669 98.8215 89.966 98.8309 89.9655 98.8373C89.965 98.8439 89.9646 98.8495 89.9644 98.8537C89.9641 98.858 89.9639 98.8618 89.9637 98.8648C89.9634 98.8706 89.9633 98.8754 89.9631 98.8786C89.963 98.882 89.9629 98.8849 89.9629 98.8871C89.9628 98.8913 89.9627 98.8948 89.9627 98.8969C89.9627 98.8993 89.9626 98.9013 89.9626 98.9027C89.9626 98.9057 89.9626 98.9081 89.9626 98.9098C89.9626 98.9132 89.9626 98.9163 89.9626 98.9186C89.9626 98.9233 89.9626 98.9282 89.9627 98.9326C89.9627 98.937 89.9628 98.942 89.9628 98.9467C89.9629 98.9489 89.9629 98.952 89.963 98.9554C89.963 98.9571 89.9631 98.9596 89.9631 98.9626C89.9632 98.9641 89.9632 98.9661 89.9633 98.9685C89.9634 98.9707 89.9635 98.9743 89.9637 98.9787C89.9638 98.9809 89.9639 98.9839 89.9641 98.9874C89.9643 98.9908 89.9646 98.9959 89.965 99.0021C89.9652 99.0052 89.9655 99.0092 89.9659 99.0139C89.9663 99.0184 89.9668 99.0245 89.9676 99.0317C89.9683 99.0386 89.9694 99.0492 89.9712 99.0621C89.972 99.0677 89.9738 99.0801 89.9749 99.0868C89.9763 99.0952 89.9799 99.1141 89.982 99.1246C89.985 99.1383 89.9929 99.1705 89.998 99.1889C90.0059 99.215 90.0295 99.28 90.0463 99.3185C90.0784 99.3812 90.197 99.5456 90.2931 99.6368C90.502 99.7646 91.0236 99.8256 91.2933 99.7305C91.4386 99.6319 91.6158 99.4331 91.662 99.3542C91.6844 99.3076 91.7152 99.2293 91.7251 99.1983C91.7311 99.1771 91.7403 99.1403 91.7438 99.1247C91.7461 99.1129 91.75 99.0919 91.7515 99.0827C91.7527 99.0753 91.7546 99.0618 91.7554 99.0558C91.7561 99.0507 91.7572 99.0413 91.7577 99.037C91.7587 99.027 91.7595 99.0186 91.76 99.0128C91.7604 99.0068 91.7608 99.0016 91.761 98.9977C91.7613 98.9938 91.7615 98.9903 91.7616 98.9875C91.7619 98.982 91.7621 98.9775 91.7622 98.9744C91.7624 98.9712 91.7625 98.9684 91.7625 98.9663C91.7626 98.9623 91.7627 98.9589 91.7628 98.9567C91.7628 98.9525 91.7629 98.9489 91.7629 98.9469C91.7629 98.9427 91.763 98.9387 91.763 98.9356C91.763 98.9323 91.763 98.9287 91.763 98.9248H89.963ZM91.5368 98.3282C90.1435 96.7545 88.0773 96.3016 86.2494 96.373L86.3196 98.1716C87.858 98.1116 89.2918 98.5079 90.1891 99.5214L91.5368 98.3282ZM86.3074 96.3726C84.376 96.3233 82.4968 97.0026 81.0437 98.2753L82.2296 99.6294C83.3426 98.6546 84.782 98.1343 86.2615 98.172L86.3074 96.3726ZM81.0437 98.2753C79.5905 99.5481 78.6699 101.321 78.4652 103.242L80.2551 103.432C80.4118 101.962 81.1167 100.604 82.2296 99.6294L81.0437 98.2753ZM79.3865 102.437C78.5211 102.412 77.6597 102.564 76.8551 102.883L77.5198 104.556C78.0963 104.327 78.7136 104.218 79.3337 104.237L79.3865 102.437ZM76.8551 102.883C76.0506 103.203 75.3199 103.684 74.7082 104.296L75.9815 105.568C76.4198 105.13 76.9433 104.785 77.5198 104.556L76.8551 102.883ZM74.7082 104.296C74.0964 104.909 73.6163 105.64 73.2976 106.444L74.9711 107.107C75.1994 106.531 75.5433 106.007 75.9815 105.568L74.7082 104.296ZM73.2976 106.444C72.9789 107.249 72.8283 108.11 72.855 108.976L74.6541 108.92C74.635 108.3 74.7429 107.684 74.9711 107.107L73.2976 106.444ZM72.8547 108.967C72.8919 110.739 73.6255 112.426 74.8968 113.662L76.1516 112.371C75.2194 111.465 74.6816 110.228 74.6543 108.929L72.8547 108.967ZM74.8968 113.662C76.1681 114.898 77.8749 115.584 79.6483 115.572L79.6364 113.773C78.3356 113.781 77.0838 113.278 76.1516 112.371L74.8968 113.662ZM79.6424 115.572H104.265V113.772H79.6424V115.572ZM107.814 115.572H111.016V113.772H107.814V115.572ZM114.605 115.572H118.646V113.772H114.605V115.572ZM118.646 115.572C120.546 115.572 122.368 114.818 123.712 113.475L122.44 112.202C121.433 113.207 120.069 113.772 118.646 113.772V115.572ZM123.712 113.475C125.056 112.132 125.811 110.31 125.811 108.411H124.011C124.011 109.833 123.446 111.196 122.44 112.202L123.712 113.475ZM125.81 108.376C125.736 106.453 124.916 104.635 123.524 103.305L122.281 104.607C123.334 105.614 123.955 106.99 124.011 108.446L125.81 108.376ZM123.524 103.305C122.132 101.976 120.278 101.24 118.353 101.253L118.365 103.053C119.822 103.043 121.227 103.6 122.281 104.607L123.524 103.305ZM119.252 102.047C119.037 100.231 118.16 98.5582 116.789 97.348L115.598 98.6974C116.637 99.6148 117.302 100.883 117.465 102.259L119.252 102.047ZM116.789 97.348C115.418 96.1377 113.649 95.4747 111.82 95.4855L111.831 97.2855C113.217 97.2773 114.559 97.78 115.598 98.6974L116.789 97.348ZM111.826 95.4855C110.654 95.4847 109.5 95.7715 108.465 96.3206L109.309 97.9107C110.083 97.4996 110.947 97.2849 111.825 97.2855L111.826 95.4855ZM108.465 96.3206C107.43 96.8698 106.545 97.6645 105.889 98.6352L107.381 99.6432C107.872 98.9167 108.534 98.3218 109.309 97.9107L108.465 96.3206Z" fill="#3C3C3C"/>
<path d="M72.2245 75.2694C71.9264 73.7639 71.0749 72.4245 69.8379 71.5151C68.6008 70.6058 67.0679 70.1924 65.541 70.3565C64.0142 70.5205 62.6042 71.2501 61.5889 72.4015C60.5735 73.5529 60.0263 75.0426 60.0553 76.577C60.0553 76.6124 60.0546 76.5418 60.0553 76.577C59.2178 75.8248 58.1198 75.4285 56.9947 75.4724C55.8547 75.4433 54.7455 75.8443 53.8878 76.5954C53.0302 77.3466 52.4869 78.393 52.3661 79.5263C51.8696 79.5117 51.3753 79.5988 50.9137 79.7822C50.4521 79.9656 50.033 80.2414 49.682 80.5927C49.331 80.944 49.0556 81.3634 48.8728 81.825C48.69 82.2866 48.6036 82.7807 48.6189 83.2769C48.6404 84.3036 49.0653 85.2806 49.8018 85.9967C50.5382 86.7128 51.5271 87.1104 52.5546 87.1035H78.6265C79.1765 87.1036 79.7211 86.9953 80.2292 86.785C80.7373 86.5746 81.199 86.2663 81.5879 85.8776C81.9768 85.489 82.2853 85.0276 82.4957 84.5197C82.7062 84.0119 82.8145 83.4676 82.8145 82.918C82.7708 81.7888 82.2893 80.7209 81.4719 79.9402C80.6545 79.1594 79.5653 78.7271 78.4347 78.7346C78.3083 77.6679 77.7932 76.6851 76.9877 75.9739C76.1822 75.2628 75.1428 74.8731 74.0681 74.8793C73.4328 74.8766 72.8042 75.0096 72.2245 75.2694Z" fill="#F2F3F5"/>
<path d="M376.82 49.3032C379.813 49.3032 379.876 52.3154 382.848 52.3154C385.82 52.3154 385.883 49.3032 388.876 49.3032C391.869 49.3032 391.932 52.3154 394.904 52.3154C397.876 52.3154 397.918 49.3032 400.932 49.3032C403.945 49.3032 403.883 52.3154 406.959 52.3154C410.036 52.3154 409.952 49.3032 412.987 49.3032C415.98 49.3032 416.043 52.3154 419.015 52.3154C421.987 52.3154 422.05 49.3032 425.043 49.3032C428.036 49.3032 428.098 52.3154 431.071 52.3154C434.043 52.3154 434.084 49.3032 437.098 49.3032C440.112 49.3032 440.049 52.3154 443.126 52.3154C446.203 52.3154 446.119 49.3032 449.154 49.3032" stroke="#008CFF" stroke-width="2" stroke-miterlimit="10"/>
<path d="M441.656 142.363C444.649 142.363 444.712 145.375 447.684 145.375C450.656 145.375 450.719 142.363 453.712 142.363C456.705 142.363 456.768 145.375 459.74 145.375C462.712 145.375 462.754 142.363 465.767 142.363C468.781 142.363 468.719 145.375 471.795 145.375C474.872 145.375 474.788 142.363 477.823 142.363C480.816 142.363 480.879 145.375 483.851 145.375C486.823 145.375 486.886 142.363 489.879 142.363C492.872 142.363 492.934 145.375 495.906 145.375" stroke="#3C3C3C" stroke-width="1.8" stroke-miterlimit="10"/>
<path d="M22.8613 142.363C25.8334 142.363 25.8752 139.351 28.8891 139.351C31.903 139.351 31.8403 142.363 34.917 142.363C37.9936 142.363 37.9098 139.351 40.9447 139.351C43.9377 139.351 44.0004 142.363 46.9725 142.363C49.9445 142.363 50.0073 139.351 53.0003 139.351C55.9933 139.351 56.0561 142.363 59.0281 142.363C62.0002 142.363 62.042 139.351 65.0559 139.351C68.0698 139.351 68.007 142.363 71.0837 142.363C74.1604 142.363 74.0767 139.351 77.1115 139.351" stroke="#008CFF" stroke-width="1.8" stroke-miterlimit="10"/>
<path d="M149.5 26C148.817 28.3592 147.593 30.5053 145.936 32.2495C144.28 33.9936 142.241 35.2822 140 36.0017C142.24 36.7218 144.278 38.0102 145.935 39.7536C147.591 41.4969 148.815 43.6419 149.5 46C150.184 43.6418 151.408 41.4967 153.065 39.7533C154.722 38.0099 156.76 36.7216 159 36.0017C156.759 35.2816 154.721 33.9929 153.064 32.2489C151.408 30.5048 150.184 28.3589 149.5 26Z" fill="#008CFF"/>
<path d="M274.714 4C274.411 4.99548 273.867 5.90107 273.13 6.63701C272.394 7.37296 271.488 7.91668 270.492 8.22029C271.488 8.52416 272.394 9.0678 273.13 9.80343C273.866 10.5391 274.41 11.4442 274.714 12.4392C275.018 11.4441 275.562 10.5389 276.299 9.8033C277.035 9.06766 277.94 8.52405 278.936 8.22029C277.94 7.91646 277.034 7.37267 276.298 6.63675C275.562 5.90084 275.018 4.99536 274.714 4Z" stroke="#3C3C3C" stroke-width="1.8" stroke-miterlimit="10"/>
<path d="M130.584 50.8193C130.343 51.6119 129.909 52.333 129.323 52.9189C128.737 53.5049 128.016 53.9378 127.223 54.1795C128.015 54.4214 128.736 54.8543 129.323 55.44C129.909 56.0257 130.342 56.7464 130.584 57.5386C130.826 56.7463 131.26 56.0256 131.846 55.4399C132.432 54.8542 133.153 54.4214 133.946 54.1795C133.153 53.9376 132.432 53.5047 131.845 52.9187C131.259 52.3328 130.826 51.6119 130.584 50.8193Z" stroke="#3C3C3C" stroke-width="2" stroke-miterlimit="10"/>
<path d="M470.728 80.8208C470.269 82.326 469.446 83.6954 468.333 84.8082C467.22 85.921 465.85 86.7431 464.344 87.2022C465.849 87.6617 467.219 88.4837 468.332 89.5961C469.445 90.7084 470.268 92.077 470.728 93.5815C471.188 92.0769 472.01 90.7082 473.123 89.5959C474.237 88.4835 475.606 87.6615 477.112 87.2022C475.606 86.7428 474.236 85.9205 473.123 84.8078C472.01 83.695 471.187 82.3259 470.728 80.8208Z" fill="#008CFF"/>
<path d="M514.469 167.738C514.227 168.531 513.794 169.252 513.208 169.838C512.622 170.424 511.9 170.857 511.107 171.098C511.9 171.34 512.621 171.773 513.207 172.359C513.794 172.945 514.227 173.665 514.469 174.458C514.711 173.665 515.144 172.945 515.73 172.359C516.317 171.773 517.038 171.34 517.831 171.098C517.038 170.857 516.316 170.424 515.73 169.838C515.144 169.252 514.711 168.531 514.469 167.738Z" stroke="#3C3C3C" stroke-width="1.8" stroke-miterlimit="10"/>
<path d="M286.982 109.815C286.523 111.321 285.7 112.69 284.587 113.803C283.474 114.916 282.104 115.738 280.598 116.197C282.103 116.656 283.473 117.478 284.586 118.591C285.699 119.703 286.522 121.072 286.982 122.576C287.441 121.072 288.264 119.703 289.377 118.59C290.49 117.478 291.86 116.656 293.366 116.197C291.86 115.737 290.49 114.915 289.377 113.802C288.264 112.69 287.441 111.321 286.982 109.815Z" fill="#008CFF" stroke="#3C3C3C" stroke-width="1.8" stroke-miterlimit="10"/>
<defs>
<clipPath id="clip0">
<rect width="24.721" height="24.7071" fill="white" transform="translate(343.828 13.1636)"/>
</clipPath>
</defs>
</svg>
