<svg width="24" height="24" viewBox="0 0 24 24" fill="none" xmlns="http://www.w3.org/2000/svg">
<path d="M12 5.1375C13.305 5.1375 14.3625 6.195 14.3625 7.5C14.3625 8.805 13.305 9.8625 12 9.8625C10.695 9.8625 9.6375 8.805 9.6375 7.5C9.6375 6.195 10.695 5.1375 12 5.1375ZM12 15.2625C15.3413 15.2625 18.8625 16.905 18.8625 17.625V18.8625H5.1375V17.625C5.1375 16.905 8.65875 15.2625 12 15.2625ZM12 3C9.51375 3 7.5 5.01375 7.5 7.5C7.5 9.98625 9.51375 12 12 12C14.4862 12 16.5 9.98625 16.5 7.5C16.5 5.01375 14.4862 3 12 3ZM12 13.125C8.99625 13.125 3 14.6325 3 17.625V21H21V17.625C21 14.6325 15.0037 13.125 12 13.125Z" fill="white"/>
</svg>
