<svg width="24" height="24" viewBox="0 0 24 24" fill="none" xmlns="http://www.w3.org/2000/svg">
<rect width="24" height="24" fill="#ED1B2F"/>
<path d="M13.7668 5.83344L15.2917 7.50011H18.6668V17.5001H5.33342V7.50011H8.70842L10.2334 5.83344H13.7668ZM14.5001 4.16678H9.50008L7.97508 5.83344H5.33342C4.41675 5.83344 3.66675 6.58344 3.66675 7.50011V17.5001C3.66675 18.4168 4.41675 19.1668 5.33342 19.1668H18.6668C19.5834 19.1668 20.3334 18.4168 20.3334 17.5001V7.50011C20.3334 6.58344 19.5834 5.83344 18.6668 5.83344H16.0251L14.5001 4.16678ZM12.0001 10.0001C13.3751 10.0001 14.5001 11.1251 14.5001 12.5001C14.5001 13.8751 13.3751 15.0001 12.0001 15.0001C10.6251 15.0001 9.50008 13.8751 9.50008 12.5001C9.50008 11.1251 10.6251 10.0001 12.0001 10.0001ZM12.0001 8.33344C9.70008 8.33344 7.83342 10.2001 7.83342 12.5001C7.83342 14.8001 9.70008 16.6668 12.0001 16.6668C14.3001 16.6668 16.1667 14.8001 16.1667 12.5001C16.1667 10.2001 14.3001 8.33344 12.0001 8.33344Z" fill="white"/>
</svg>
