<svg width="24" height="24" viewBox="0 0 24 24" fill="none" xmlns="http://www.w3.org/2000/svg">
<path d="M14.12 4.60013L15.95 6.60013H20V18.6001H4V6.60013H8.05L9.88 4.60013H14.12ZM15 2.60013H9L7.17 4.60013H4C2.9 4.60013 2 5.50013 2 6.60013V18.6001C2 19.7001 2.9 20.6001 4 20.6001H20C21.1 20.6001 22 19.7001 22 18.6001V6.60013C22 5.50013 21.1 4.60013 20 4.60013H16.83L15 2.60013ZM12 9.60013C13.65 9.60013 15 10.9501 15 12.6001C15 14.2501 13.65 15.6001 12 15.6001C10.35 15.6001 9 14.2501 9 12.6001C9 10.9501 10.35 9.60013 12 9.60013ZM12 7.60013C9.24 7.60013 7 9.84013 7 12.6001C7 15.3601 9.24 17.6001 12 17.6001C14.76 17.6001 17 15.3601 17 12.6001C17 9.84013 14.76 7.60013 12 7.60013Z" fill="black"/>
</svg>
