<svg width="32" height="32" viewBox="0 0 32 32" fill="none" xmlns="http://www.w3.org/2000/svg">
<rect width="32" height="32" fill="#ED1B2F"/>
<g clip-path="url(#clip0)">
<path d="M26.6667 9.38518C25.8734 9.73318 25.028 9.96384 24.1467 10.0758C25.0534 9.53451 25.7454 8.68384 26.0707 7.65851C25.2254 8.16251 24.292 8.51851 23.2974 8.71718C22.4947 7.86251 21.3507 7.33318 20.1027 7.33318C17.6814 7.33318 15.732 9.29851 15.732 11.7078C15.732 12.0545 15.7614 12.3878 15.8334 12.7052C12.1974 12.5278 8.98004 10.7852 6.81871 8.13051C6.44137 8.78518 6.22004 9.53451 6.22004 10.3412C6.22004 11.8558 7.00004 13.1985 8.16271 13.9758C7.46004 13.9625 6.77071 13.7585 6.18671 13.4372C6.18671 13.4505 6.18671 13.4678 6.18671 13.4852C6.18671 15.6105 7.70271 17.3758 9.69071 17.7825C9.33471 17.8798 8.94671 17.9265 8.54404 17.9265C8.26404 17.9265 7.98137 17.9105 7.71604 17.8518C8.28271 19.5838 9.89071 20.8572 11.8027 20.8985C10.3147 22.0625 8.42537 22.7638 6.38004 22.7638C6.02137 22.7638 5.67737 22.7478 5.33337 22.7038C7.27071 23.9532 9.56671 24.6665 12.0427 24.6665C20.0907 24.6665 24.4907 17.9998 24.4907 12.2212C24.4907 12.0278 24.484 11.8412 24.4747 11.6558C25.3427 11.0398 26.072 10.2705 26.6667 9.38518Z" fill="white"/>
</g>
<defs>
<clipPath id="clip0">
<rect x="5.33337" y="5.33316" width="21.3333" height="21.3333" fill="white"/>
</clipPath>
</defs>
</svg>
