<svg width="32" height="32" viewBox="0 0 32 32" fill="none" xmlns="http://www.w3.org/2000/svg">
<rect width="32" height="32" fill="white"/>
<g clip-path="url(#clip0)">
<path d="M26.6668 9.38518C25.8735 9.73318 25.0282 9.96384 24.1468 10.0758C25.0535 9.53451 25.7455 8.68384 26.0708 7.65851C25.2255 8.16251 24.2922 8.51851 23.2975 8.71718C22.4948 7.86251 21.3508 7.33318 20.1028 7.33318C17.6815 7.33318 15.7322 9.29851 15.7322 11.7078C15.7322 12.0545 15.7615 12.3878 15.8335 12.7052C12.1975 12.5278 8.98016 10.7852 6.81883 8.13051C6.4415 8.78518 6.22016 9.53451 6.22016 10.3412C6.22016 11.8558 7.00016 13.1985 8.16283 13.9758C7.46016 13.9625 6.77083 13.7585 6.18683 13.4372C6.18683 13.4505 6.18683 13.4678 6.18683 13.4852C6.18683 15.6105 7.70283 17.3758 9.69083 17.7825C9.33483 17.8798 8.94683 17.9265 8.54416 17.9265C8.26416 17.9265 7.9815 17.9105 7.71616 17.8518C8.28283 19.5838 9.89083 20.8572 11.8028 20.8985C10.3148 22.0625 8.4255 22.7638 6.38016 22.7638C6.0215 22.7638 5.6775 22.7478 5.3335 22.7038C7.27083 23.9532 9.56683 24.6665 12.0428 24.6665C20.0908 24.6665 24.4908 17.9998 24.4908 12.2212C24.4908 12.0278 24.4842 11.8412 24.4748 11.6558C25.3428 11.0398 26.0722 10.2705 26.6668 9.38518Z" fill="#ED1B2F"/>
</g>
<defs>
<clipPath id="clip0">
<rect x="5.3335" y="5.33316" width="21.3333" height="21.3333" fill="white"/>
</clipPath>
</defs>
</svg>
