<svg width="58" height="12" viewBox="0 0 58 12" fill="none" xmlns="http://www.w3.org/2000/svg">
<g clip-path="url(#clip0)">
<path d="M0 0H1.51481V3.66123C1.88367 3.37185 2.4497 3.14768 3.08209 3.14768C4.84653 3.14768 5.90026 4.41208 5.90026 6.1634C5.90026 8.11266 4.59651 9.36356 2.51568 9.36356C1.54104 9.36356 0.53979 9.04755 0 8.70531V0H0ZM1.51481 5.1363V7.65159C1.84393 7.86225 2.17344 7.95447 2.59439 7.95447C3.54278 7.95447 4.28012 7.33558 4.28012 6.26874C4.28012 5.13591 3.58214 4.56988 2.72634 4.56988C2.19929 4.57027 1.76483 4.84692 1.51481 5.1363Z" fill="white"/>
<path d="M8.23036 0.276672C8.6652 0.276672 9.09965 0.618912 9.09965 1.15909C9.09965 1.76486 8.6652 2.10748 8.23036 2.10748C7.7168 2.10748 7.28235 1.76524 7.28235 1.15909C7.28235 0.618912 7.7168 0.276672 8.23036 0.276672ZM7.44016 3.29239H8.95496V9.21889H7.44016V3.29239Z" fill="white"/>
<path d="M13.274 11.9583C11.8383 11.9583 11.0223 11.3395 10.7325 11.1153L11.4698 9.9431C11.8125 10.1935 12.5367 10.5489 13.3797 10.5489C14.3281 10.5489 14.7757 10.114 14.7757 9.28447V8.91561C14.3277 9.20538 13.788 9.36357 13.3138 9.36357C11.4174 9.36357 10.2321 8.12541 10.2321 6.25563C10.2321 4.53016 11.628 3.14731 13.6298 3.14731C14.6437 3.14731 15.6581 3.46331 16.2905 3.85841V9.12666C16.2901 11.1681 14.9466 11.9583 13.274 11.9583ZM14.7753 7.41469V4.85966C14.42 4.68835 14.0376 4.5699 13.6163 4.5699C12.4576 4.5699 11.8518 5.38634 11.8518 6.32161C11.8518 7.2565 12.4969 7.95448 13.5109 7.95448C13.9855 7.95448 14.4856 7.7307 14.7753 7.41469Z" fill="white"/>
<path d="M26.9571 9.21923H25.4423V5.74204C25.4423 5.0047 25.1394 4.6096 24.4283 4.6096C23.8623 4.6096 23.4143 4.88625 23.2036 5.29447C23.2036 5.38668 23.2168 5.59735 23.2168 5.72892V9.21884H21.7023V5.63709C21.7023 5.01782 21.3597 4.6096 20.7146 4.6096C20.1748 4.6096 19.74 4.84689 19.4768 5.24199V9.21923H17.9624V3.29235H19.4768V3.95097C19.8982 3.47678 20.5961 3.18701 21.3335 3.18701C22.2421 3.18701 22.8483 3.59523 23.0586 4.13541C23.4803 3.58211 24.1385 3.18701 25.0603 3.18701C26.1403 3.18701 26.9571 3.72719 26.9571 5.34694V9.21923Z" fill="white"/>
<path d="M29.5105 0.276672C29.945 0.276672 30.3794 0.618912 30.3794 1.15909C30.3794 1.76486 29.945 2.10748 29.5105 2.10748C28.997 2.10748 28.5621 1.76524 28.5621 1.15909C28.5625 0.618912 28.997 0.276672 29.5105 0.276672ZM28.7207 3.29239H30.2351V9.21889H28.7207V3.29239Z" fill="white"/>
<path d="M32.1443 3.29235H33.6587V3.87188C33.9354 3.4899 34.3038 3.18701 35.0149 3.18701C35.5022 3.18701 35.7395 3.26611 35.9371 3.41118L35.3973 4.83339C35.1075 4.66246 34.9493 4.6096 34.6333 4.6096C34.1067 4.6096 33.83 4.89937 33.6591 5.24199V9.21923H32.1443V3.29235Z" fill="white"/>
<path d="M35.9634 11.1022C37.2012 9.95662 38.0705 8.19179 38.0705 6.25603C38.0705 4.31989 37.4118 2.83171 35.9765 1.40911L36.9118 0.579559C38.9266 2.39686 39.5853 4.31989 39.5853 6.25603C39.5853 8.19179 38.9266 10.207 36.9249 11.9321L35.9634 11.1022Z" fill="white"/>
<path d="M40.9539 3.29235H42.4687V3.885C42.824 3.50301 43.4564 3.18701 44.1675 3.18701C45.616 3.18701 46.6041 3.885 46.6041 5.74204V9.21923H45.0897V6.00557C45.0897 5.05718 44.6024 4.6096 43.7593 4.6096C43.2457 4.6096 42.8244 4.82027 42.469 5.17602V9.21923H40.9542V3.29235H40.9539Z" fill="white"/>
<path d="M52.7007 8.62616C52.1081 9.12699 51.265 9.36389 50.4355 9.36389C48.5256 9.36389 47.248 8.12612 47.248 6.25595C47.248 4.53047 48.4333 3.14801 50.3826 3.14801C51.9101 3.14801 53.188 4.24109 53.188 5.90021C53.188 6.26907 53.1618 6.49286 53.0958 6.71703H48.8157C48.9473 7.61256 49.6588 8.09988 50.5937 8.09988C51.3179 8.09988 51.9236 7.83635 52.2659 7.5597L52.7007 8.62616ZM48.7628 5.70266H51.6732C51.6864 4.97805 51.1859 4.41164 50.3166 4.41164C49.4084 4.41202 48.921 4.92557 48.7628 5.70266Z" fill="white"/>
<path d="M54.2808 1.64633H55.7952V3.29271H57.7051V4.7153H55.7952V6.87484C55.7952 7.52035 56.0058 7.94169 56.5063 7.94169C56.9145 7.94169 57.2043 7.75726 57.4149 7.59945L57.876 8.77125C57.5203 9.06063 56.8879 9.35039 56.1243 9.35039C54.7808 9.35039 54.2808 8.48148 54.2808 6.96667V1.64633Z" fill="white"/>
</g>
<defs>
<clipPath id="clip0">
<path d="M0 0H57.876V12H0V0Z" fill="white"/>
</clipPath>
</defs>
</svg>
