<svg width="49" height="12" viewBox="0 0 49 12" fill="none" xmlns="http://www.w3.org/2000/svg">
<path fill-rule="evenodd" clip-rule="evenodd" d="M36.72 5.16C36.7599 4.71984 37.2 3.87984 38.2397 3.87984C39.3999 3.87984 39.6 4.8 39.6399 5.16H36.72ZM38.28 2.60016C36.3197 2.60016 34.9997 4.04016 34.9997 5.88C34.9997 7.76016 36.3197 9.15984 38.3199 9.15984C40.32 9.15984 41.16 7.76016 41.16 7.76016L39.8799 6.92016C39.8799 6.92016 39.4397 7.8 38.3199 7.8C37.1597 7.8 36.6797 6.80016 36.6797 6.44016H41.28C41.28 6.44016 41.3199 6.15984 41.3199 6.08016V5.88C41.3199 3.99984 40.2 2.60016 38.28 2.60016ZM47.4797 5.88C47.4797 6.92016 46.8797 7.8 45.72 7.8C44.5599 7.8 43.92 6.84 43.92 5.88C43.92 4.92 44.5599 3.96 45.72 3.96C46.8399 3.96 47.4797 4.8 47.4797 5.88ZM45.9197 2.60016C44.7999 2.60016 44.16 3.20016 43.9599 3.44016V2.76H42.2799V12H43.9997V8.4C44.1999 8.60016 44.88 9.15984 45.9197 9.15984C47.52 9.15984 48.9999 7.95984 48.9999 5.88C49.0397 3.68016 47.4 2.60016 45.9197 2.60016ZM10.3598 6.39984C10.3598 7.23984 9.87984 7.83984 8.95968 7.83984C8.07984 7.83984 7.99968 7.32 7.99968 7.11984C7.99968 6.63984 8.4 6.36 9.39984 6.24C9.67968 6.20016 9.96 6.20016 10.2398 6.20016H10.3598V6.39984ZM11.9597 7.59984V5.36016C11.88 3.39984 11.04 2.60016 9.27984 2.60016C8.07984 2.60016 7.27968 3.08016 6.99984 3.27984L7.47984 4.56C7.47984 4.56 8.19984 3.92016 9.12 3.92016C10.44 3.92016 10.2797 5.00016 10.2797 5.00016C9.84 5.00016 6.27984 4.8 6.27984 7.11984C6.27984 8.4 7.35984 9.12 8.52 9.12C9.55968 9.12 10.1597 8.60016 10.32 8.4C10.32 8.43984 10.3598 9 10.3598 9H11.9597C12.0398 9 11.9597 8.43984 11.9597 7.59984ZM17.0798 5.4L14.9198 2.79984L14.88 2.76H13.3997V9H15.12V5.36016L16.8 7.47984L16.8398 7.52016H17.28L18.9998 5.31984V9H20.7197V2.76H19.2398L17.0798 5.4ZM4.32 2.91984C4.32 3.96 3.31968 4.32 2.64 4.32H1.75968V1.47984H2.64C3.31968 1.47984 4.32 1.88016 4.32 2.91984ZM2.79984 0H0V9.03984H1.8V5.84016H2.76C4.59984 5.84016 6.12 4.88016 6.12 2.91984C6.12 0.96 4.59984 0 2.79984 0ZM26.6799 6C26.6799 6.72 26.28 7.76016 25.1199 7.76016C23.9597 7.76016 23.4797 6.84 23.4797 5.96016C23.4797 5.07984 23.9597 4.28016 25.1199 4.28016C26.28 4.28016 26.6799 5.28 26.6799 6ZM25.2797 2.76C24.4397 2.76 23.8397 3.15984 23.6798 3.27984C23.7197 3.08016 23.9198 1.40016 26.16 1.40016H27.5597L28.08 0H26.1999C23.7197 0 21.7997 1.16016 21.7997 5.19984C21.7997 7.40016 22.7597 9.20016 25.08 9.20016C27.2799 9.20016 28.3997 7.59984 28.3997 6C28.3997 3.68016 26.6798 2.76 25.2797 2.76ZM33.0399 9H34.8797L32.5997 2.76H30.7997L28.4799 9H30.36L31.68 5.00016H31.7199L33.0399 9Z" fill="white"/>
</svg>
