<svg width="32" height="32" viewBox="0 0 32 32" fill="none" xmlns="http://www.w3.org/2000/svg">
<rect width="32" height="32" fill="#ED1B2F"/>
<path d="M4.42391 15.5716L9.95399 17.6356L12.0945 24.5194C12.2314 24.9602 12.7706 25.1232 13.1284 24.8306L16.211 22.3177C16.5341 22.0544 16.9943 22.0413 17.332 22.2864L22.8918 26.323C23.2746 26.6012 23.817 26.3914 23.913 25.9289L27.9858 6.3376C28.0906 5.83232 27.5942 5.4108 27.113 5.59688L4.41743 14.3522C3.85735 14.5682 3.86223 15.3611 4.42391 15.5716ZM11.7495 16.5369L22.5574 9.88032C22.7516 9.76104 22.9514 10.0237 22.7846 10.1784L13.865 18.4696C13.5515 18.7614 13.3493 19.152 13.292 19.5759L12.9882 21.8276C12.9479 22.1282 12.5256 22.1581 12.4426 21.8671L11.2741 17.7611C11.1402 17.2928 11.3353 16.7926 11.7495 16.5369Z" fill="white"/>
</svg>
